<?xml version="1.0" encoding="utf-8"?>
<!-- Generator: Adobe Illustrator 22.1.0, SVG Export Plug-In . SVG Version: 6.00 Build 0)  -->
<svg version="1.1" id="icons" xmlns="http://www.w3.org/2000/svg" xmlns:xlink="http://www.w3.org/1999/xlink" x="0px" y="0px"
	 viewBox="0 0 60 60" style="enable-background:new 0 0 60 60;" xml:space="preserve">
<style type="text/css">
	.st0{fill:#FFFFFF;}
</style>
<g>
	<path class="st0" d="M20.4,46.1l0.2-0.3v-2.7H0v2.7l0.2,0.3C2.7,49.2,6.3,51,10.3,51S18,49.2,20.4,46.1z M1.9,45.1V45h16.9v0.1
		c-2.1,2.5-5.2,4-8.4,4S4,47.7,1.9,45.1z"/>
	<polygon class="st0" points="10.3,13.1 10.3,14.2 18.8,39.5 18.8,41.2 20.6,41.2 20.6,39.2 12.2,13.9 12.2,13.1 	"/>
	<path class="st0" d="M39.4,45.8l0.2,0.3C42,49.2,45.7,51,49.7,51s7.7-1.8,10.1-4.9l0.2-0.3v-2.7H39.4V45.8z M41.2,45h16.9v0.1
		c-2.1,2.5-5.2,4-8.4,4s-6.3-1.4-8.4-4V45z"/>
	<path class="st0" d="M51.3,9.4H32.8V8.1c0.6-0.7,0.9-1.6,0.9-2.5V3.8C33.8,1.7,32.1,0,30,0s-3.8,1.7-3.8,3.8v1.9
		c0,0.9,0.4,1.8,0.9,2.5v1.3H8.7L0,39.1l0,2.1h1.9v-1.7l8.2-28.3h19v-2c0.3,0.1,0.6,0.1,0.9,0.1V7.5c-1,0-1.9-0.8-1.9-1.9V3.8
		c0-1,0.8-1.9,1.9-1.9s1.9,0.8,1.9,1.9v1.9c0,0.5-0.2,1-0.6,1.4l-0.3,0.3v4h19l8.2,28.3v1.7H60v-1.9L51.3,9.4z"/>
	<polygon class="st0" points="46.9,13.9 39.4,39.1 39.4,41.2 41.2,41.2 41.2,39.5 48.7,14.3 48.8,13.1 46.9,13.1 	"/>
	<path class="st0" d="M39.4,54.4h-3.8V15H45v-1.9H33.8v41.2h-2.8V30h-1.9v24.4h-2.8V13.1H14.1V15h10.3v39.4h-3.8v3.8h-3.8V60h26.3
		v-1.9h-3.8L39.4,54.4z M22.5,56.2h15l0,1.9h-15V56.2z"/>
	<rect x="45" y="58.1" class="st0" width="1.9" height="1.9"/>
	<rect x="48.8" y="58.1" class="st0" width="1.9" height="1.9"/>
	<rect x="52.5" y="58.1" class="st0" width="1.9" height="1.9"/>
	<rect x="5.6" y="58.1" class="st0" width="1.9" height="1.9"/>
	<rect x="9.4" y="58.1" class="st0" width="1.9" height="1.9"/>
	<rect x="13.1" y="58.1" class="st0" width="1.9" height="1.9"/>
	<rect x="48.8" y="39.4" class="st0" width="1.9" height="1.9"/>
	<rect x="48.8" y="35.6" class="st0" width="1.9" height="1.9"/>
	<rect x="48.8" y="31.9" class="st0" width="1.9" height="1.9"/>
	<rect x="9.4" y="39.4" class="st0" width="1.9" height="1.9"/>
	<rect x="9.4" y="35.6" class="st0" width="1.9" height="1.9"/>
	<rect x="9.4" y="31.9" class="st0" width="1.9" height="1.9"/>
</g>
</svg>
