<?xml version="1.0" encoding="utf-8"?>
<!-- Generator: Adobe Illustrator 22.1.0, SVG Export Plug-In . SVG Version: 6.00 Build 0)  -->
<svg version="1.1" id="Layer_1" xmlns="http://www.w3.org/2000/svg" xmlns:xlink="http://www.w3.org/1999/xlink" x="0px" y="0px"
	 viewBox="85.4 -304.1 309.8 22.1" style="enable-background:new 85.4 -304.1 309.8 22.1;" xml:space="preserve">
<style type="text/css">
	.st0{fill:#FFFFFF;}
</style>
<g>
	<g>
		<path class="st0" d="M151.2-304.1h1.1v1.2c0,0.9-0.5,1.3-1.4,1.3h-1.1v-1.2C149.8-303.6,150.2-304.1,151.2-304.1z M149.8-298.2
			c0-0.9,0.5-1.3,1.4-1.3h1.1v12.8h-1.1c-0.9,0-1.4-0.5-1.4-1.3V-298.2z"/>
		<path class="st0" d="M158.7-289.3c0.3,0.3,0.7,0.4,1.2,0.4v1.2c0,0.6-0.3,0.9-0.8,1.1c-0.4,0.1-0.9,0.1-1.3-0.2
			c-0.7-0.3-1.2-0.8-1.6-1.4c-0.5-0.7-0.7-1.6-0.7-2.6v-11.9c0-0.9,0.5-1.3,1.4-1.3h1.1v13.2C158.1-290.2,158.3-289.7,158.7-289.3z"
			/>
		<path class="st0" d="M171.8-298.4c1.3,1,1.9,2.3,1.9,3.8v7.9h-0.8c-0.6,0-1.1-0.4-1.4-1c-1,1-2.5,1.4-3.9,1.4
			c-1.6,0-3-0.5-4.2-1.5c-1.3-1-1.9-2.3-1.9-3.8v-3c0-1.5,0.6-2.8,1.9-3.8c1.2-1,2.6-1.5,4.2-1.5
			C169.2-299.9,170.6-299.4,171.8-298.4z M167.6-297.3c-1,0-1.9,0.3-2.6,0.9c-0.6,0.5-1,1.1-1,1.9v3c0,0.7,0.3,1.3,1,1.9
			c0.7,0.6,1.6,0.9,2.6,0.9s1.9-0.3,2.6-0.9c0.6-0.5,1-1.1,1-1.9v-3c0-0.7-0.3-1.3-1-1.9C169.5-297,168.6-297.3,167.6-297.3z"/>
		<path class="st0" d="M191.9-298.2c0-0.9,0.5-1.3,1.4-1.3h1.1v7.9c0,1.6-0.5,2.9-1.4,3.8c-0.9,1-2.2,1.4-3.8,1.4
			c-1.6,0-2.9-0.6-3.8-1.6c-1,1.1-2.3,1.6-3.8,1.6c-1.6,0-2.9-0.5-3.8-1.4c-0.9-0.9-1.4-2.2-1.4-3.8v-6.5c0-0.9,0.5-1.3,1.4-1.3h1.1
			v7.9c0,1,0.2,1.7,0.7,2.1c0.4,0.4,1.1,0.7,1.9,0.7c0.8,0,1.4-0.2,1.9-0.7c0.5-0.5,0.7-1.2,0.7-2.1v-6.5c0-0.9,0.5-1.3,1.4-1.3h1.1
			v7.9c0,0.9,0.3,1.6,0.7,2.1c0.5,0.5,1.1,0.7,1.9,0.7c0.9,0,1.5-0.2,1.9-0.7s0.7-1.1,0.7-2.1L191.9-298.2L191.9-298.2z"/>
		<path class="st0" d="M208.7-299.5l-5,14c-0.1,0.3-0.3,0.6-0.4,1c-0.1,0.3-0.2,0.6-0.4,0.8c-0.4,0.5-0.8,1-1.4,1.3
			c-0.5,0.2-0.9,0.3-1.3,0.2c-0.5-0.1-0.8-0.5-0.8-1.1v-1.2c0.3,0,0.6-0.1,0.9-0.2c0.3-0.2,0.6-0.4,0.6-0.6l0.5-1.3
			c-0.8-0.2-1.3-0.6-1.5-1.2l-3.7-10.5c-0.1-0.3-0.1-0.6,0-0.8c0.1-0.2,0.4-0.4,0.7-0.4h1.6l3.7,10.6h0l3.4-9.6c0.2-0.6,0.7-1,1.3-1
			L208.7-299.5L208.7-299.5z"/>
		<path class="st0" d="M219-299.2c0.6,0.4,1.2,0.8,1.6,1.3c0.5,0.7,0.7,1.4,0.7,2.2c0,0.7-0.1,1.3-0.4,1.9c-0.3,0.5-0.6,0.9-1.1,1.2
			c-0.5,0.3-1,0.6-1.5,0.7c-0.5,0.2-1.1,0.2-1.7,0.2h-3.1c-0.2,0-0.4,0-0.5,0c-0.2-0.1-0.3-0.1-0.4-0.2v1.1c0,0.6,0.3,1.1,0.9,1.4
			c0.5,0.3,1.1,0.5,1.7,0.5c0.6,0.1,1.2,0,1.8-0.1c0.5-0.1,0.9-0.3,1.2-0.5c0.1-0.1,0.2-0.2,0.3-0.3c0.4-0.5,0.9-0.5,1.5-0.2
			l1.2,0.6c-0.2,0.5-0.6,1-1,1.4c-0.6,0.6-1.3,1-2.2,1.3c-0.8,0.3-1.6,0.4-2.5,0.4c-0.8,0-1.4-0.1-2-0.2c-0.7-0.2-1.3-0.4-1.8-0.8
			c-0.6-0.4-1.1-1-1.4-1.7c-0.3-0.7-0.5-1.4-0.5-2.2v-4.1c0-0.6,0.2-1.3,0.4-1.9c0.4-0.9,1.2-1.6,2.1-2.1c0.9-0.4,1.9-0.6,3-0.6
			C216.7-299.9,218-299.7,219-299.2z M218.1-294.5c0.4-0.2,0.6-0.6,0.7-1.1c0-0.5-0.1-0.9-0.5-1.2c-0.5-0.4-1.2-0.6-1.9-0.6
			c-0.7,0-1.4,0-1.9,0.2c-0.5,0.1-1,0.3-1.3,0.6c-0.4,0.3-0.6,0.7-0.6,1.2v1.2h4.2C217.3-294.2,217.7-294.3,218.1-294.5z"/>
		<path class="st0" d="M223.6-295c0-1.5,0.5-2.7,1.5-3.5c0.8-0.7,1.8-1,2.9-1h1.7v1.1c0,0.9-0.4,1.4-1.3,1.4H228
			c-0.5,0-0.9,0.2-1.2,0.4c-0.4,0.4-0.6,0.9-0.6,1.5v8.3H225c-0.9,0-1.4-0.5-1.4-1.3L223.6-295L223.6-295z"/>
		<path class="st0" d="M246.2-296.7c-0.4-0.4-1.1-0.7-1.9-0.7c-0.8,0-1.4,0.2-1.9,0.7c-0.5,0.5-0.7,1.2-0.7,2.1v7.9h-1.1
			c-0.9,0-1.4-0.5-1.4-1.3v-6.5c0-0.9-0.2-1.5-0.7-2.1c-0.5-0.5-1.1-0.7-1.9-0.7c-0.9,0-1.5,0.2-1.9,0.7c-0.4,0.5-0.7,1.2-0.7,2.1
			v7.9h-1.1c-0.9,0-1.4-0.5-1.4-1.3v-6.5c0-1.6,0.5-2.9,1.4-3.8c0.9-1,2.2-1.5,3.8-1.5c1.3,0,2.4,0.4,3.3,1.2
			c0.1,0.1,0.3,0.3,0.5,0.5c0.2-0.2,0.3-0.4,0.5-0.5c0.9-0.8,2-1.2,3.4-1.2c1.6,0,2.8,0.5,3.8,1.5c0.9,1,1.4,2.2,1.4,3.8v7.9h-1.1
			c-0.9,0-1.4-0.5-1.4-1.3v-6.5C246.8-295.5,246.6-296.2,246.2-296.7z"/>
		<path class="st0" d="M262.2-298.4c1.3,1,1.9,2.3,1.9,3.8v7.9h-0.8c-0.6,0-1.1-0.4-1.4-1c-1,1-2.5,1.4-3.9,1.4
			c-1.6,0-3-0.5-4.2-1.5c-1.3-1-1.9-2.3-1.9-3.8v-3c0-1.5,0.6-2.8,1.9-3.8c1.2-1,2.6-1.5,4.2-1.5C259.5-299.9,261-299.4,262.2-298.4
			z M257.9-297.3c-1,0-1.9,0.3-2.6,0.9c-0.6,0.5-1,1.1-1,1.9v3c0,0.7,0.3,1.3,1,1.9c0.7,0.6,1.6,0.9,2.6,0.9c1,0,1.9-0.3,2.6-0.9
			c0.6-0.5,1-1.1,1-1.9v-3c0-0.7-0.3-1.3-1-1.9C259.8-297,259-297.3,257.9-297.3z"/>
		<path class="st0" d="M266.9-295c0-1.5,0.5-2.7,1.5-3.5c0.8-0.7,1.8-1,2.9-1h1.7v1.1c0,0.9-0.4,1.4-1.3,1.4h-0.4
			c-0.5,0-0.9,0.2-1.2,0.4c-0.4,0.4-0.6,0.9-0.6,1.5v8.3h-1.1c-0.9,0-1.4-0.5-1.4-1.3V-295z"/>
		<path class="st0" d="M274.9-302.7c0-0.9,0.5-1.3,1.4-1.3h1.1v9.9h0.9c0.5,0,1,0,1.3-0.5l2.4-3.9c0.4-0.6,0.9-0.9,1.5-0.9h2l-3,5
			c-0.2,0.3-0.3,0.5-0.5,0.7c0.8,0.4,1.5,1.1,1.9,2.1l2.2,5h-1.6c-0.8,0-1.3-0.3-1.5-0.8l-1.4-3.2c-0.3-0.6-0.8-1-1.4-1h-2.7v4.9
			h-1.1c-0.9,0-1.4-0.5-1.4-1.3L274.9-302.7L274.9-302.7z"/>
		<path class="st0" d="M296.6-299.2c0.6,0.4,1.2,0.8,1.6,1.3c0.5,0.7,0.7,1.4,0.7,2.2c0,0.7-0.1,1.3-0.4,1.9
			c-0.3,0.5-0.6,0.9-1.1,1.2c-0.5,0.3-1,0.6-1.5,0.7c-0.5,0.2-1.1,0.2-1.7,0.2h-3.1c-0.2,0-0.4,0-0.5,0c-0.2-0.1-0.3-0.1-0.4-0.2
			v1.1c0,0.6,0.3,1.1,0.9,1.4c0.5,0.3,1.1,0.5,1.7,0.5c0.6,0.1,1.2,0,1.8-0.1c0.5-0.1,0.9-0.3,1.2-0.5c0.1-0.1,0.2-0.2,0.3-0.3
			c0.4-0.5,0.9-0.5,1.5-0.2l1.2,0.6c-0.2,0.5-0.6,1-1,1.4c-0.6,0.6-1.3,1-2.2,1.3c-0.8,0.3-1.6,0.4-2.5,0.4c-0.8,0-1.4-0.1-2-0.2
			c-0.7-0.2-1.3-0.4-1.8-0.8c-0.6-0.4-1.1-1-1.4-1.7c-0.3-0.7-0.5-1.4-0.5-2.2v-4.1c0-0.6,0.2-1.3,0.4-1.9c0.4-0.9,1.2-1.6,2.1-2.1
			c0.9-0.4,1.9-0.6,3-0.6C294.3-299.9,295.5-299.7,296.6-299.2z M295.6-294.5c0.4-0.2,0.6-0.6,0.7-1.1c0-0.5-0.1-0.9-0.5-1.2
			c-0.5-0.4-1.2-0.6-1.9-0.6c-0.7,0-1.4,0-1.9,0.2c-0.5,0.1-1,0.3-1.3,0.6c-0.4,0.3-0.6,0.7-0.6,1.2v1.2h4.2
			C294.9-294.2,295.3-294.3,295.6-294.5z"/>
		<path class="st0" d="M306.8-299.5v1.1c0,0.9-0.5,1.4-1.3,1.4h-1.7v6.1c0,0.7,0.2,1.2,0.6,1.5c0.3,0.3,0.7,0.4,1.2,0.4v1.2
			c0,0.6-0.3,0.9-0.8,1.1c-0.4,0.1-0.9,0.1-1.3-0.2c-0.7-0.3-1.2-0.8-1.6-1.4c-0.4-0.7-0.7-1.6-0.7-2.6v-11.9c0-0.9,0.5-1.3,1.4-1.3
			h1.2v4.6H306.8z"/>
		<path class="st0" d="M310.4-304.1h1.1v1.2c0,0.9-0.5,1.3-1.4,1.3h-1.1v-1.2C308.9-303.6,309.4-304.1,310.4-304.1z M308.9-298.2
			c0-0.9,0.5-1.3,1.4-1.3h1.1v12.8h-1.1c-0.9,0-1.4-0.5-1.4-1.3V-298.2z"/>
		<path class="st0" d="M316.4-298.5c1.1-1,2.5-1.4,4-1.4c1.6,0,2.9,0.5,4,1.4c1.2,1,1.8,2.2,1.8,3.6v8.1h-1.1
			c-0.9,0-1.4-0.5-1.4-1.3v-6.8c0-0.7-0.3-1.2-0.9-1.7c-0.7-0.6-1.5-0.8-2.4-0.8c-1,0-1.8,0.3-2.4,0.8c-0.6,0.5-0.9,1.1-0.9,1.7v8.1
			H316c-0.9,0-1.4-0.5-1.4-1.3v-6.8C314.6-296.2,315.2-297.4,316.4-298.5z"/>
		<path class="st0" d="M339.1-298.4c1.3,1,1.9,2.3,1.9,3.8v7.7c0,0.8-0.2,1.5-0.5,2.1c-0.6,1.3-1.9,2.1-3.2,2.5
			c-0.7,0.2-1.4,0.3-2.2,0.3c-0.7,0-1.3-0.1-2-0.2c-0.6-0.1-1-0.4-1.2-0.7c-0.2-0.3-0.2-0.6-0.1-1.1l0.2-1c0.6,0.3,1.3,0.4,2.2,0.4
			c0.8,0,1.6-0.1,2.2-0.3c1.2-0.3,1.8-1.1,1.8-2.2v-0.5c-1.1,0.7-2.2,1-3.6,1c-1.6,0-3-0.5-4.2-1.5c-1.3-1-1.9-2.3-1.9-3.8v-3
			c0-1.5,0.6-2.8,1.9-3.8c1.2-1,2.6-1.5,4.2-1.5C336.4-299.9,337.8-299.4,339.1-298.4z M334.8-297.3c-1,0-1.9,0.3-2.6,0.9
			c-0.6,0.5-1,1.1-1,1.9v3c0,0.7,0.3,1.3,1,1.9c0.7,0.6,1.6,0.9,2.6,0.9c1,0,1.9-0.3,2.6-0.9c0.6-0.5,1-1.1,1-1.9v-3
			c0-0.7-0.3-1.3-1-1.9C336.7-297,335.9-297.3,334.8-297.3z"/>
		<path class="st0" d="M345.4-289.6h1.1v1.5c0,0.9-0.5,1.3-1.4,1.3H344v-1.5C344-289.1,344.5-289.6,345.4-289.6z"/>
		<path class="st0" d="M349.3-294.8c0-1.4,0.6-2.6,1.8-3.6c1.1-1,2.5-1.4,4-1.4c1.6,0,2.9,0.5,4,1.4c0.7,0.6,1.2,1.2,1.5,2l-1.1,0.6
			c-0.7,0.3-1.2,0.2-1.7-0.3c-0.2-0.2-0.3-0.3-0.3-0.4c-0.7-0.6-1.5-0.8-2.4-0.8s-1.8,0.3-2.4,0.8c-0.6,0.5-0.9,1.1-0.9,1.7v3.4
			c0,0.7,0.3,1.2,0.9,1.7c0.7,0.5,1.5,0.8,2.4,0.8c1,0,1.8-0.3,2.4-0.8c0.1-0.1,0.2-0.2,0.3-0.4c0.5-0.5,1-0.6,1.7-0.3l1.1,0.6
			c-0.3,0.8-0.8,1.4-1.5,2c-1.1,0.9-2.5,1.4-4,1.4c-1.6,0-2.9-0.5-4-1.4c-1.2-1-1.8-2.2-1.8-3.6V-294.8z"/>
		<path class="st0" d="M372.9-298.4c1.3,1,1.9,2.3,1.9,3.8v3c0,1.5-0.6,2.8-1.9,3.8c-1.2,1-2.6,1.5-4.2,1.5c-1.6,0-3-0.5-4.2-1.5
			c-1.3-1-1.9-2.3-1.9-3.8v-3c0-1.5,0.6-2.8,1.9-3.8c1.2-1,2.6-1.5,4.2-1.5C370.2-299.9,371.6-299.4,372.9-298.4z M368.6-297.3
			c-1,0-1.9,0.3-2.6,0.9c-0.6,0.5-1,1.1-1,1.9v3c0,0.7,0.3,1.3,1,1.9c0.7,0.6,1.6,0.9,2.6,0.9c1,0,1.9-0.3,2.6-0.9
			c0.6-0.5,1-1.1,1-1.9v-3c0-0.7-0.3-1.3-1-1.9C370.5-297,369.7-297.3,368.6-297.3z"/>
		<path class="st0" d="M392-296.7c-0.4-0.4-1.1-0.7-1.9-0.7c-0.8,0-1.4,0.2-1.9,0.7c-0.5,0.5-0.7,1.2-0.7,2.1v7.9h-1.1
			c-0.9,0-1.4-0.5-1.4-1.3v-6.5c0-0.9-0.2-1.5-0.7-2.1c-0.5-0.5-1.1-0.7-1.9-0.7c-0.9,0-1.5,0.2-1.9,0.7c-0.4,0.5-0.7,1.2-0.7,2.1
			v7.9h-1.1c-0.9,0-1.4-0.5-1.4-1.3v-6.5c0-1.6,0.5-2.9,1.4-3.8c0.9-1,2.2-1.5,3.8-1.5c1.3,0,2.4,0.4,3.3,1.2
			c0.1,0.1,0.3,0.3,0.5,0.5c0.2-0.2,0.3-0.4,0.5-0.5c0.9-0.8,2-1.2,3.4-1.2c1.6,0,2.8,0.5,3.8,1.5c0.9,1,1.4,2.2,1.4,3.8v7.9H394
			c-0.9,0-1.4-0.5-1.4-1.3v-6.5C392.6-295.5,392.4-296.2,392-296.7z"/>
	</g>
	<g>
		<path class="st0" d="M90.4-294.7c0-1.1-0.1-2.2-1.3-2.2c-0.8,0-1.3,0.3-1.3,1.1c0,0.9,0.6,1.3,1.3,1.7c0.8,0.5,2.1,1.4,2.8,2
			c0.8,0.8,1,1.5,1,2.6c0,2.3-1.5,3.5-3.8,3.5c-2.7,0-3.7-1.5-3.7-3.7v-0.9h2.3v0.7c0,1.2,0.3,2.1,1.4,2.1c1,0,1.4-0.5,1.4-1.4
			c0-0.7-0.3-1.2-0.9-1.6c-1.2-0.9-2.7-1.6-3.6-2.8c-0.4-0.6-0.6-1.2-0.6-1.9c0-2.1,1.2-3.2,3.6-3.2c3.6,0,3.5,2.8,3.6,4H90.4z"/>
		<path class="st0" d="M95.5-286.2v-12.3h2.3v12.3H95.5z"/>
		<path class="st0" d="M99.8-298.4h7.6v1.8h-2.7v10.5h-2.3v-10.5h-2.7L99.8-298.4L99.8-298.4z"/>
		<path class="st0" d="M109.4-286.2v-12.3h6.4v1.8h-4.1v3.1h3.8v1.8h-3.8v3.8h4.1v1.8H109.4z"/>
		<path class="st0" d="M123-286.2v-12.3h3.7c1,0,1.9,0.1,2.6,0.9c0.5,0.7,0.6,1.4,0.6,2.2c0,1.1-0.2,2.1-1.5,2.6v0
			c1.3,0.2,1.8,1.3,1.8,2.8c0,0.5,0,1-0.2,1.5c-0.5,1.6-1.4,2.2-3,2.2L123-286.2L123-286.2z M125.7-293.5c0.6,0,1.3,0,1.6-0.4
			c0.2-0.3,0.2-0.7,0.2-1.3c0-0.9-0.2-1.4-1.2-1.4h-1.1v3.2H125.7z M125.7-288c0.5,0,1,0,1.4-0.1c0.6-0.3,0.7-1.1,0.7-1.7
			c0-1.3-0.3-1.9-1.7-1.9h-0.9v3.7L125.7-288L125.7-288z"/>
		<path class="st0" d="M135.6-295.2c0.2,0.6,0.4,1.2,0.5,1.9h0c0.2-0.9,0.5-1.6,0.8-2.3l1.1-2.8h2.5l-3.2,7v5.2H135v-5.2l-3.2-7h2.5
			L135.6-295.2z"/>
	</g>
</g>
</svg>
