<?xml version="1.0" encoding="utf-8"?>
<!-- Generator: Adobe Illustrator 22.1.0, SVG Export Plug-In . SVG Version: 6.00 Build 0)  -->
<svg version="1.1" id="Layer_1" xmlns="http://www.w3.org/2000/svg" xmlns:xlink="http://www.w3.org/1999/xlink" x="0px" y="0px"
	 viewBox="0 0 26.1 24" style="enable-background:new 0 0 26.1 24;" xml:space="preserve">
<style type="text/css">
	.st0{fill:#13182E;}
	.st1{fill-rule:evenodd;clip-rule:evenodd;fill:#13182E;}
</style>
<path class="st0" d="M5.7,24H0.7V7.7h5.1V24z M3.1,5.6L3.1,5.6C1.2,5.6,0,4.4,0,2.8C0,1.2,1.2,0,3.1,0c1.9,0,3,1.2,3.1,2.8
	C6.2,4.4,5,5.6,3.1,5.6z M26.1,24h-5.8v-8.4c0-2.2-0.9-3.7-2.9-3.7c-1.5,0-2.4,1-2.8,2c-0.1,0.3-0.1,0.8-0.1,1.3V24H8.8
	c0,0,0.1-14.9,0-16.3h5.7v2.6c0.3-1.1,2.2-2.7,5.1-2.7c3.6,0,6.5,2.3,6.5,7.4V24z"/>
</svg>
