<?xml version="1.0" encoding="utf-8"?>
<!-- Generator: Adobe Illustrator 22.1.0, SVG Export Plug-In . SVG Version: 6.00 Build 0)  -->
<svg version="1.1" id="Layer_1" xmlns="http://www.w3.org/2000/svg" xmlns:xlink="http://www.w3.org/1999/xlink" x="0px" y="0px"
	 viewBox="0 0 11.3 23.2" style="enable-background:new 0 0 11.3 23.2;" xml:space="preserve">
<style type="text/css">
	.st0{fill:#13182E;}
	.st1{fill-rule:evenodd;clip-rule:evenodd;fill:#13182E;}
</style>
<path id="Facebook_1_" class="st0" d="M2.4,4.7c0,0.6,0,3.3,0,3.3H0v4.1h2.4v11.2h5V12.1h3.4c0,0,0.3-1.9,0.5-4.1
	c-0.4,0-3.8,0-3.8,0s0-2.4,0-2.8c0-0.4,0.5-1,1.1-1c0.5,0,1.7,0,2.7,0c0-0.6,0-2.5,0-4.2c-1.4,0-3,0-3.7,0C2.3,0,2.4,4.1,2.4,4.7z"
	/>
</svg>
