<?xml version="1.0" encoding="utf-8"?>
<!-- Generator: Adobe Illustrator 22.1.0, SVG Export Plug-In . SVG Version: 6.00 Build 0)  -->
<svg version="1.1" id="Layer_1" xmlns="http://www.w3.org/2000/svg" xmlns:xlink="http://www.w3.org/1999/xlink" x="0px" y="0px"
	 viewBox="0 0 26.8 21.8" style="enable-background:new 0 0 26.8 21.8;" xml:space="preserve">
<style type="text/css">
	.st0{fill:#13182E;}
	.st1{fill-rule:evenodd;clip-rule:evenodd;fill:#13182E;}
</style>
<path class="st0" d="M26.8,2.6c-1,0.4-2,0.7-3.2,0.9c1.1-0.7,2-1.8,2.4-3C25,1,23.9,1.5,22.6,1.7c-1-1.1-2.4-1.7-4-1.7
	c-3,0-5.5,2.5-5.5,5.5c0,0.4,0,0.9,0.1,1.3C8.6,6.5,4.6,4.3,1.9,1C1.4,1.8,1.1,2.8,1.1,3.8c0,1.9,1,3.6,2.4,4.6
	c-0.9,0-1.8-0.3-2.5-0.7c0,0,0,0,0,0.1c0,2.7,1.9,4.9,4.4,5.4C5,13.3,4.5,13.3,4,13.3c-0.4,0-0.7,0-1-0.1c0.7,2.2,2.7,3.8,5.1,3.8
	c-1.9,1.5-4.3,2.4-6.8,2.4c-0.4,0-0.9,0-1.3-0.1c2.4,1.6,5.3,2.5,8.4,2.5c10.1,0,15.7-8.4,15.7-15.7c0-0.2,0-0.5,0-0.7
	C25.2,4.7,26.1,3.7,26.8,2.6z"/>
</svg>
