<svg id="ilawyer_logo" data-name="Layer 1" xmlns="http://www.w3.org/2000/svg" width="310" height="22.1" viewBox="0 0 310 22.1"><defs><style>.ilawyer_logo-cls-1{fill:#fff;}</style></defs><title>footer_icon_06</title><path class="ilawyer_logo-cls-1" d="M65.8,0h1.1V1.2c0,.9-.5,1.3-1.4,1.3H64.4V1.3C64.4.5,64.8,0,65.8,0ZM64.4,5.9c0-.9.5-1.3,1.4-1.3h1.1V17.4H65.8a1.24,1.24,0,0,1-1.4-1.3Z" transform="translate(0 0)"/><path class="ilawyer_logo-cls-1" d="M73.3,14.8a1.59,1.59,0,0,0,1.2.4v1.2a1.08,1.08,0,0,1-.8,1.1,1.53,1.53,0,0,1-1.3-.2,3.64,3.64,0,0,1-1.6-1.4,4.41,4.41,0,0,1-.7-2.6V1.4c0-.9.5-1.3,1.4-1.3h1.1V13.3A2.63,2.63,0,0,0,73.3,14.8Z" transform="translate(0 0)"/><path class="ilawyer_logo-cls-1" d="M86.4,5.7a4.6,4.6,0,0,1,1.9,3.8v7.9h-.8a1.61,1.61,0,0,1-1.4-1,5.52,5.52,0,0,1-3.9,1.4A6.36,6.36,0,0,1,78,16.3a4.6,4.6,0,0,1-1.9-3.8v-3A4.6,4.6,0,0,1,78,5.7a6.63,6.63,0,0,1,8.4,0ZM82.2,6.8a3.92,3.92,0,0,0-2.6.9,2.42,2.42,0,0,0-1,1.9v3a2.42,2.42,0,0,0,1,1.9,4.21,4.21,0,0,0,5.2,0,2.42,2.42,0,0,0,1-1.9v-3a2.42,2.42,0,0,0-1-1.9A3.92,3.92,0,0,0,82.2,6.8Z" transform="translate(0 0)"/><path class="ilawyer_logo-cls-1" d="M106.5,5.9c0-.9.5-1.3,1.4-1.3H109v7.9a5.22,5.22,0,0,1-1.4,3.8,4.84,4.84,0,0,1-3.8,1.4,5,5,0,0,1-3.8-1.6,4.92,4.92,0,0,1-3.8,1.6,5.22,5.22,0,0,1-3.8-1.4A5.22,5.22,0,0,1,91,12.5V6c0-.9.5-1.3,1.4-1.3h1.1v7.9a2.54,2.54,0,0,0,.7,2.1,2.74,2.74,0,0,0,1.9.7,2.49,2.49,0,0,0,1.9-.7,2.82,2.82,0,0,0,.7-2.1V6.1c0-.9.5-1.3,1.4-1.3h1.1v7.9a3.3,3.3,0,0,0,.7,2.1,2.49,2.49,0,0,0,1.9.7,2.23,2.23,0,0,0,1.9-.7,3.1,3.1,0,0,0,.7-2.1l.1-6.8Z" transform="translate(0 0)"/><path class="ilawyer_logo-cls-1" d="M123.3,4.6l-5,14a10.37,10.37,0,0,0-.4,1,2,2,0,0,1-.4.8,4.36,4.36,0,0,1-1.4,1.3,2.09,2.09,0,0,1-1.3.2,1,1,0,0,1-.8-1.1V19.6a2.92,2.92,0,0,0,.9-.2c.3-.2.6-.4.6-.6l.5-1.3a1.91,1.91,0,0,1-1.5-1.2L110.8,5.8a1.1,1.1,0,0,1,0-.8.84.84,0,0,1,.7-.4h1.6l3.7,10.6h0l3.4-9.6a1.38,1.38,0,0,1,1.3-1Z" transform="translate(0 0)"/><path class="ilawyer_logo-cls-1" d="M133.6,4.9a7,7,0,0,1,1.6,1.3,3.6,3.6,0,0,1,.7,2.2,4.06,4.06,0,0,1-.4,1.9,3.18,3.18,0,0,1-1.1,1.2,5.07,5.07,0,0,1-1.5.7,4.68,4.68,0,0,1-1.7.2h-3.6c-.2-.1-.3-.1-.4-.2v1.1a1.51,1.51,0,0,0,.9,1.4,3.37,3.37,0,0,0,1.7.5,5.46,5.46,0,0,0,1.8-.1,3.34,3.34,0,0,0,1.2-.5l.3-.3a1.08,1.08,0,0,1,1.5-.2l1.2.6a4.51,4.51,0,0,1-1,1.4,5.37,5.37,0,0,1-2.2,1.3,6.9,6.9,0,0,1-2.5.4,11.24,11.24,0,0,1-2-.2,4.94,4.94,0,0,1-1.8-.8,3.91,3.91,0,0,1-1.4-1.7,5.45,5.45,0,0,1-.5-2.2V8.8a6.46,6.46,0,0,1,.4-1.9,4.74,4.74,0,0,1,2.1-2.1,7.31,7.31,0,0,1,3-.6A8.43,8.43,0,0,1,133.6,4.9Zm-.9,4.7a1.44,1.44,0,0,0,.7-1.1,1.35,1.35,0,0,0-.5-1.2,3.08,3.08,0,0,0-1.9-.6,5.55,5.55,0,0,0-1.9.2,2.62,2.62,0,0,0-1.3.6,1.43,1.43,0,0,0-.6,1.2V9.9h4.2A2.77,2.77,0,0,0,132.7,9.6Z" transform="translate(0 0)"/><path class="ilawyer_logo-cls-1" d="M138.2,9.1a4.25,4.25,0,0,1,4.4-4.5h1.7V5.7c0,.9-.4,1.4-1.3,1.4h-.4a2.14,2.14,0,0,0-1.2.4,2,2,0,0,0-.6,1.5v8.3h-1.2a1.24,1.24,0,0,1-1.4-1.3V9.1Z" transform="translate(0 0)"/><path class="ilawyer_logo-cls-1" d="M160.8,7.4a2.74,2.74,0,0,0-1.9-.7,2.49,2.49,0,0,0-1.9.7,2.82,2.82,0,0,0-.7,2.1v7.9h-1.1a1.24,1.24,0,0,1-1.4-1.3V9.6a3,3,0,0,0-.7-2.1,2.49,2.49,0,0,0-1.9-.7,2.23,2.23,0,0,0-1.9.7,3.3,3.3,0,0,0-.7,2.1v7.9h-1.1a1.24,1.24,0,0,1-1.4-1.3V9.7a5.22,5.22,0,0,1,1.4-3.8,4.9,4.9,0,0,1,3.8-1.5,4.79,4.79,0,0,1,3.3,1.2l.5.5c.2-.2.3-.4.5-.5A4.87,4.87,0,0,1,159,4.4a5,5,0,0,1,3.8,1.5,5.38,5.38,0,0,1,1.4,3.8v7.9h-1.1a1.24,1.24,0,0,1-1.4-1.3V9.8A6.31,6.31,0,0,0,160.8,7.4Z" transform="translate(0 0)"/><path class="ilawyer_logo-cls-1" d="M176.8,5.7a4.6,4.6,0,0,1,1.9,3.8v7.9h-.8a1.61,1.61,0,0,1-1.4-1,5.52,5.52,0,0,1-3.9,1.4,6.36,6.36,0,0,1-4.2-1.5,4.6,4.6,0,0,1-1.9-3.8v-3a4.6,4.6,0,0,1,1.9-3.8,6.36,6.36,0,0,1,4.2-1.5A6.55,6.55,0,0,1,176.8,5.7Zm-4.3,1.1a3.92,3.92,0,0,0-2.6.9,2.42,2.42,0,0,0-1,1.9v3a2.42,2.42,0,0,0,1,1.9,4.21,4.21,0,0,0,5.2,0,2.42,2.42,0,0,0,1-1.9v-3a2.42,2.42,0,0,0-1-1.9A3.74,3.74,0,0,0,172.5,6.8Z" transform="translate(0 0)"/><path class="ilawyer_logo-cls-1" d="M181.5,9.1a4.25,4.25,0,0,1,4.4-4.5h1.7V5.7c0,.9-.4,1.4-1.3,1.4h-.4a2.14,2.14,0,0,0-1.2.4,2,2,0,0,0-.6,1.5v8.3H183a1.24,1.24,0,0,1-1.4-1.3V9.1Z" transform="translate(0 0)"/><path class="ilawyer_logo-cls-1" d="M189.5,1.4c0-.9.5-1.3,1.4-1.3H192V10h.9c.5,0,1,0,1.3-.5l2.4-3.9a1.76,1.76,0,0,1,1.5-.9h2l-3,5a4.23,4.23,0,0,1-.5.7,4,4,0,0,1,1.9,2.1l2.2,5h-1.6a1.45,1.45,0,0,1-1.5-.8l-1.4-3.2a1.61,1.61,0,0,0-1.4-1h-2.7v4.9H191a1.24,1.24,0,0,1-1.4-1.3l-.1-14.7Z" transform="translate(0 0)"/><path class="ilawyer_logo-cls-1" d="M211.2,4.9a7,7,0,0,1,1.6,1.3,3.6,3.6,0,0,1,.7,2.2,4.06,4.06,0,0,1-.4,1.9,3.18,3.18,0,0,1-1.1,1.2,5.07,5.07,0,0,1-1.5.7,4.68,4.68,0,0,1-1.7.2h-3.6c-.2-.1-.3-.1-.4-.2v1.1a1.51,1.51,0,0,0,.9,1.4,3.37,3.37,0,0,0,1.7.5,5.46,5.46,0,0,0,1.8-.1,3.34,3.34,0,0,0,1.2-.5l.3-.3a1.08,1.08,0,0,1,1.5-.2l1.2.6a4.51,4.51,0,0,1-1,1.4,5.37,5.37,0,0,1-2.2,1.3,6.9,6.9,0,0,1-2.5.4,11.24,11.24,0,0,1-2-.2,4.94,4.94,0,0,1-1.8-.8,3.91,3.91,0,0,1-1.4-1.7,5.45,5.45,0,0,1-.5-2.2V8.8a6.46,6.46,0,0,1,.4-1.9,4.74,4.74,0,0,1,2.1-2.1,7.31,7.31,0,0,1,3-.6A8.73,8.73,0,0,1,211.2,4.9Zm-1,4.7a1.44,1.44,0,0,0,.7-1.1,1.35,1.35,0,0,0-.5-1.2,3.08,3.08,0,0,0-1.9-.6,5.55,5.55,0,0,0-1.9.2,2.62,2.62,0,0,0-1.3.6,1.43,1.43,0,0,0-.6,1.2V9.9h4.2A2.27,2.27,0,0,0,210.2,9.6Z" transform="translate(0 0)"/><path class="ilawyer_logo-cls-1" d="M221.4,4.6V5.7a1.24,1.24,0,0,1-1.3,1.4h-1.7v6.1a1.75,1.75,0,0,0,.6,1.5,1.59,1.59,0,0,0,1.2.4v1.2a1.08,1.08,0,0,1-.8,1.1,1.53,1.53,0,0,1-1.3-.2,3.64,3.64,0,0,1-1.6-1.4,5.28,5.28,0,0,1-.7-2.6V1.3c0-.9.5-1.3,1.4-1.3h1.2V4.6Z" transform="translate(0 0)"/><path class="ilawyer_logo-cls-1" d="M225,0h1.1V1.2c0,.9-.5,1.3-1.4,1.3h-1.1V1.3C223.5.5,224,0,225,0Zm-1.5,5.9c0-.9.5-1.3,1.4-1.3H226V17.4h-1.1a1.24,1.24,0,0,1-1.4-1.3Z" transform="translate(0 0)"/><path class="ilawyer_logo-cls-1" d="M231,5.6a5.77,5.77,0,0,1,4-1.4,6.09,6.09,0,0,1,4,1.4,4.54,4.54,0,0,1,1.8,3.6v8.1h-1.1a1.24,1.24,0,0,1-1.4-1.3V9.2a2.09,2.09,0,0,0-.9-1.7,3.49,3.49,0,0,0-2.4-.8,3.65,3.65,0,0,0-2.4.8,2.23,2.23,0,0,0-.9,1.7v8.1h-1.1a1.24,1.24,0,0,1-1.4-1.3V9.2A4.84,4.84,0,0,1,231,5.6Z" transform="translate(0 0)"/><path class="ilawyer_logo-cls-1" d="M253.7,5.7a4.6,4.6,0,0,1,1.9,3.8v7.7a4.65,4.65,0,0,1-.5,2.1,5,5,0,0,1-3.2,2.5,7.8,7.8,0,0,1-2.2.3,13.55,13.55,0,0,1-2-.2,1.76,1.76,0,0,1-1.2-.7,1.33,1.33,0,0,1-.1-1.1l.2-1a4.81,4.81,0,0,0,2.2.4,7.32,7.32,0,0,0,2.2-.3,2.14,2.14,0,0,0,1.8-2.2v-.5A6.78,6.78,0,0,1,245,16a4.6,4.6,0,0,1-1.9-3.8v-3A4.6,4.6,0,0,1,245,5.4a6.36,6.36,0,0,1,4.2-1.5A9.52,9.52,0,0,1,253.7,5.7Zm-4.3,1.1a3.92,3.92,0,0,0-2.6.9,2.42,2.42,0,0,0-1,1.9v3a2.42,2.42,0,0,0,1,1.9,4.21,4.21,0,0,0,5.2,0,2.42,2.42,0,0,0,1-1.9v-3a2.42,2.42,0,0,0-1-1.9A3.74,3.74,0,0,0,249.4,6.8Z" transform="translate(0 0)"/><path class="ilawyer_logo-cls-1" d="M260,14.5h1.1V16c0,.9-.5,1.3-1.4,1.3h-1.1V15.8A1.24,1.24,0,0,1,260,14.5Z" transform="translate(0 0)"/><path class="ilawyer_logo-cls-1" d="M263.9,9.3a4.54,4.54,0,0,1,1.8-3.6,5.77,5.77,0,0,1,4-1.4,6.09,6.09,0,0,1,4,1.4,4.81,4.81,0,0,1,1.5,2l-1.1.6a1.36,1.36,0,0,1-1.7-.3c-.2-.2-.3-.3-.3-.4a3.49,3.49,0,0,0-2.4-.8,3.85,3.85,0,0,0-2.4.8,2.23,2.23,0,0,0-.9,1.7v3.4a2.09,2.09,0,0,0,.9,1.7,4.07,4.07,0,0,0,2.4.8,3.65,3.65,0,0,0,2.4-.8,1.38,1.38,0,0,0,.3-.4,1.36,1.36,0,0,1,1.7-.3l1.1.6a4.81,4.81,0,0,1-1.5,2,6.28,6.28,0,0,1-4,1.4,6.09,6.09,0,0,1-4-1.4,4.54,4.54,0,0,1-1.8-3.6Z" transform="translate(0 0)"/><path class="ilawyer_logo-cls-1" d="M287.5,5.7a4.6,4.6,0,0,1,1.9,3.8v3a4.6,4.6,0,0,1-1.9,3.8,6.63,6.63,0,0,1-8.4,0,4.6,4.6,0,0,1-1.9-3.8v-3a4.6,4.6,0,0,1,1.9-3.8,6.36,6.36,0,0,1,4.2-1.5A6.76,6.76,0,0,1,287.5,5.7Zm-4.3,1.1a3.92,3.92,0,0,0-2.6.9,2.42,2.42,0,0,0-1,1.9v3a2.42,2.42,0,0,0,1,1.9,4.21,4.21,0,0,0,5.2,0,2.42,2.42,0,0,0,1-1.9v-3a2.42,2.42,0,0,0-1-1.9A3.74,3.74,0,0,0,283.2,6.8Z" transform="translate(0 0)"/><path class="ilawyer_logo-cls-1" d="M306.6,7.4a2.74,2.74,0,0,0-1.9-.7,2.49,2.49,0,0,0-1.9.7,2.82,2.82,0,0,0-.7,2.1v7.9H301a1.24,1.24,0,0,1-1.4-1.3V9.6a3,3,0,0,0-.7-2.1,2.49,2.49,0,0,0-1.9-.7,2.23,2.23,0,0,0-1.9.7,3.3,3.3,0,0,0-.7,2.1v7.9h-1.1a1.24,1.24,0,0,1-1.4-1.3V9.7a5.22,5.22,0,0,1,1.4-3.8,4.9,4.9,0,0,1,3.8-1.5,4.79,4.79,0,0,1,3.3,1.2l.5.5c.2-.2.3-.4.5-.5a4.87,4.87,0,0,1,3.4-1.2,5,5,0,0,1,3.8,1.5A5.38,5.38,0,0,1,310,9.7v7.9h-1.4a1.24,1.24,0,0,1-1.4-1.3V9.8A3.65,3.65,0,0,0,306.6,7.4Z" transform="translate(0 0)"/><path class="ilawyer_logo-cls-1" d="M5,9.4c0-1.1-.1-2.2-1.3-2.2-.8,0-1.3.3-1.3,1.1S3,9.6,3.7,10a28.32,28.32,0,0,1,2.8,2,3.19,3.19,0,0,1,1,2.6c0,2.3-1.5,3.5-3.8,3.5C1,18.1,0,16.6,0,14.4v-.9H2.3v.7c0,1.2.3,2.1,1.4,2.1a1.22,1.22,0,0,0,1.4-1.4,1.8,1.8,0,0,0-.9-1.6C3,12.4,1.5,11.7.6,10.5A3.29,3.29,0,0,1,0,8.6C0,6.5,1.2,5.4,3.6,5.4c3.6,0,3.5,2.8,3.6,4Z" transform="translate(0 0)"/><path class="ilawyer_logo-cls-1" d="M10.1,17.9V5.6h2.3V17.9Z" transform="translate(0 0)"/><path class="ilawyer_logo-cls-1" d="M14.4,5.7H22V7.5H19.3V18H17V7.5H14.3l.1-1.8Z" transform="translate(0 0)"/><path class="ilawyer_logo-cls-1" d="M24,17.9V5.6h6.4V7.4H26.3v3.1h3.8v1.8H26.3v3.8h4.1v1.8Z" transform="translate(0 0)"/><path class="ilawyer_logo-cls-1" d="M37.6,17.9V5.6h3.7a3.11,3.11,0,0,1,2.6.9,3.5,3.5,0,0,1,.6,2.2A2.37,2.37,0,0,1,43,11.3h0c1.3.2,1.8,1.3,1.8,2.8a3.89,3.89,0,0,1-.2,1.5,2.74,2.74,0,0,1-3,2.2l-4,.1Zm2.7-7.3c.6,0,1.3,0,1.6-.4a2.36,2.36,0,0,0,.2-1.3c0-.9-.2-1.4-1.2-1.4H39.8v3.2h.5Zm0,5.5a6.15,6.15,0,0,0,1.4-.1c.6-.3.7-1.1.7-1.7,0-1.3-.3-1.9-1.7-1.9h-.9v3.7Z" transform="translate(0 0)"/><path class="ilawyer_logo-cls-1" d="M50.2,8.9a10.55,10.55,0,0,1,.5,1.9h0a12.34,12.34,0,0,1,.8-2.3l1.1-2.8h2.5l-3.2,7v5.2H49.6V12.7l-3.2-7h2.5Z" transform="translate(0 0)"/></svg>