<?xml version="1.0" encoding="utf-8"?>
<!-- Generator: Adobe Illustrator 22.1.0, SVG Export Plug-In . SVG Version: 6.00 Build 0)  -->
<svg version="1.1" id="Layer_1" xmlns="http://www.w3.org/2000/svg" xmlns:xlink="http://www.w3.org/1999/xlink" x="0px" y="0px"
	 viewBox="0 0 34.7 22" style="enable-background:new 0 0 34.7 22;" xml:space="preserve">
<style type="text/css">
	.st0{fill:#13182E;}
	.st1{fill-rule:evenodd;clip-rule:evenodd;fill:#13182E;}
</style>
<g>
	<g>
		<path class="st0" d="M11,8.8v4.4c0,0,4.2,0,6,0c-0.9,2.8-2.4,4.4-6,4.4c-3.6,0-6.4-2.9-6.4-6.5c0-3.6,2.8-6.5,6.4-6.5
			c1.9,0,3.1,0.7,4.3,1.6c0.9-0.9,0.8-1,3.1-3.2C16.5,1.1,13.9,0,11,0C4.9,0,0,4.9,0,11c0,6.1,4.9,11,11,11
			c9.1,0,11.3-7.9,10.6-13.2C19.5,8.8,11,8.8,11,8.8z M30.9,9.1V5.2h-2.7v3.8h-3.9v2.7h3.9v3.9h2.7v-3.9h3.8V9.1H30.9z"/>
	</g>
</g>
</svg>
