<?xml version="1.0" encoding="utf-8"?>
<!-- Generator: Adobe Illustrator 22.1.0, SVG Export Plug-In . SVG Version: 6.00 Build 0)  -->
<svg version="1.1" id="Layer_1" xmlns="http://www.w3.org/2000/svg" xmlns:xlink="http://www.w3.org/1999/xlink" x="0px" y="0px"
	 viewBox="0 0 241.2 56.1" style="enable-background:new 0 0 241.2 56.1;" xml:space="preserve">
<style type="text/css">
	.st0{fill:#FFFFFF;}
</style>
<g>
	<g>
		<path class="st0" d="M0,28.4c0.1-1.1,0.5-2,1.3-2.7c8-7.9,16-15.7,24-23.5c0.4-0.4,2-1.8,2.6-2c0.8-0.3,1.3-0.3,1.8,0.5
			c0.7,1-1,2.2-1.6,2.7c-3.9,3.1-7,6.9-9.6,11.1c-6.6,10.9-5.6,23,2.4,33c2,2.5,4.5,4.9,6.9,7.1c0.4,0.3,0.6,0.7,0.3,1.2
			c-0.4,0.7-1.1,0.3-1.6,0c-0.7-0.4-1.3-0.9-1.8-1.5C17.1,46.8,9.5,39.4,1.9,31.9C0.9,31,0,30,0,28.4z"/>
		<g>
			<path class="st0" d="M54.2,27.7L31.1,5c-3.9,2.8-7.1,6.1-9.8,9.7c-0.9,1.3-1.7,2.5-2.4,3.8h4.8c0.7,0,1.3,0,2,0.1
				c1,0.1,1.8,0.4,2.6,0.8c1.3,0.6,2.3,1.4,3,2.5c0,0,0,0.1,0.1,0.1c0.7,1.1,1,2.3,1,3.8c0,0.3,0,0.6-0.1,0.9
				c-0.1,1.1-0.5,2.1-1,2.9c-0.1,0.2-0.2,0.3-0.3,0.5c-0.1,0.1-0.2,0.2-0.3,0.3c-0.1,0.1-0.3,0.3-0.4,0.4c-0.4,0.4-0.9,0.7-1.5,1
				c-0.2,0.1-0.3,0.2-0.5,0.3l2,2.9v0.1h0l2.4,3.5h-4.9l-2.1-3L24,33h-0.2h-4v5.6h-1.8c1.4,3.2,3.5,6.2,6.4,9.1
				c1.9,1.9,4,3.7,6.1,5.5l23.7-23.4C54.8,29.2,54.8,28.3,54.2,27.7z M42.5,37.2c-1.3,0.9-3.3,1.4-5.9,1.4h-3.2l-0.3-0.4l-2.1-3.1
				H31h5.2c1.2,0,2.1-0.2,2.7-0.6c0.6-0.4,0.9-1,0.9-1.9c0-1.7-1.2-2.5-3.6-2.5h-4.7c0.1-0.2,0.2-0.3,0.3-0.5c0.6-0.8,0.9-1.8,1-2.9
				h2.5c1.1,0,2-0.2,2.6-0.6c0.6-0.4,0.9-1,0.9-1.8c0-0.8-0.3-1.4-0.9-1.8c-0.6-0.4-1.4-0.6-2.6-0.6H32c-0.1-0.1-0.2-0.3-0.2-0.4
				c0,0,0-0.1-0.1-0.1c-0.7-1.1-1.7-1.9-3-2.5c-0.4-0.2-0.8-0.3-1.3-0.5H36c2.4,0,4.3,0.5,5.6,1.4c1.3,0.9,1.9,2.2,1.9,3.8
				c0,1-0.2,1.8-0.7,2.6c-0.5,0.8-1.1,1.4-1.9,1.8c1.1,0.4,2,1,2.7,1.8c0.6,0.9,1,1.9,1,3.1C44.5,34.9,43.8,36.2,42.5,37.2z"/>
			<path class="st0" d="M26.6,23.2c-0.3-0.2-0.6-0.4-0.9-0.5c-0.6-0.2-1.3-0.4-2.2-0.4h-3.3h-0.4v7h3.7c0.9,0,1.6-0.1,2.2-0.4
				c0.3-0.1,0.7-0.3,0.9-0.5c0.1-0.1,0.3-0.2,0.4-0.4c0.5-0.6,0.7-1.3,0.7-2.2C27.7,24.6,27.4,23.8,26.6,23.2z"/>
		</g>
	</g>
	<g>
		<path class="st0" d="M68.7,32.1H67v3.7h-3.2V21.9H69c1,0,1.9,0.2,2.7,0.6c0.8,0.4,1.3,1,1.7,1.8C73.8,25.1,74,26,74,27
			c0,1-0.2,1.9-0.6,2.6c-0.4,0.8-0.9,1.3-1.6,1.8l2.4,4.4h-3.4L68.7,32.1z M70.3,25.5c-0.3-0.4-0.8-0.5-1.5-0.5H67v4.1h1.8
			c0.7,0,1.1-0.2,1.5-0.5c0.3-0.4,0.5-0.9,0.5-1.5C70.8,26.4,70.6,25.9,70.3,25.5z"/>
		<path class="st0" d="M75.7,21.9h3.2v13.9h-3.2V21.9z"/>
		<path class="st0" d="M81.2,21.9h5.3c1.2,0,2.3,0.3,3.3,0.9c1,0.6,1.7,1.4,2.2,2.4c0.5,1,0.8,2.3,0.8,3.7c0,1.4-0.3,2.6-0.8,3.7
			c-0.5,1-1.3,1.9-2.2,2.4c-1,0.6-2.1,0.9-3.3,0.9h-5.3V21.9z M86.4,32.7c1,0,1.7-0.3,2.3-1c0.6-0.7,0.9-1.6,0.9-2.8
			s-0.3-2.1-0.9-2.8c-0.6-0.7-1.4-1-2.3-1h-2v7.6H86.4z"/>
		<path class="st0" d="M94.5,21.9h5.3c1.2,0,2.3,0.3,3.3,0.9c1,0.6,1.7,1.4,2.2,2.4c0.5,1,0.8,2.3,0.8,3.7c0,1.4-0.3,2.6-0.8,3.7
			c-0.5,1-1.3,1.9-2.2,2.4c-1,0.6-2.1,0.9-3.3,0.9h-5.3V21.9z M99.7,32.7c1,0,1.7-0.3,2.3-1c0.6-0.7,0.9-1.6,0.9-2.8
			s-0.3-2.1-0.9-2.8c-0.6-0.7-1.4-1-2.3-1h-2v7.6H99.7z"/>
		<path class="st0" d="M107.8,21.9h3.2v10.8h5.4v3.1h-8.6V21.9z"/>
		<path class="st0" d="M126.7,32.8v3h-9.1V21.9h8.9v3h-5.7v2.3h5v2.9h-5v2.5H126.7z"/>
	</g>
	<path class="st0" d="M142.1,36l-1.3-1.4c-0.5,0.5-1.1,0.8-1.8,1.1c-0.6,0.2-1.3,0.4-2,0.4c-0.8,0-1.6-0.2-2.3-0.5
		c-0.7-0.3-1.2-0.8-1.6-1.4c-0.4-0.6-0.6-1.3-0.6-2c0-0.9,0.2-1.6,0.6-2.3c0.4-0.7,1-1.3,1.8-1.8c-0.7-0.9-1.1-1.8-1.1-2.8
		c0-0.7,0.2-1.3,0.5-1.9c0.3-0.5,0.8-1,1.3-1.3c0.6-0.3,1.2-0.4,2-0.4c1,0,1.9,0.3,2.5,0.9c0.6,0.6,1,1.4,1,2.4
		c0,0.7-0.2,1.4-0.5,1.9c-0.3,0.6-0.9,1.1-1.6,1.6l1.6,1.8c0.2-0.6,0.4-1.2,0.5-2l2.5,0.9c-0.2,1.2-0.6,2.2-1,3.2l1.2,1.3L142.1,36z
		 M139,32.6l-2.4-2.7c-0.4,0.3-0.6,0.5-0.8,0.8c-0.2,0.3-0.2,0.6-0.2,1c0,0.4,0.2,0.8,0.5,1c0.3,0.3,0.7,0.4,1.3,0.4
		C137.9,33.2,138.5,33,139,32.6z M136.9,24.4c-0.2,0.2-0.3,0.4-0.3,0.7c0,0.2,0.1,0.4,0.2,0.6c0.1,0.2,0.3,0.5,0.6,0.8
		c0.4-0.3,0.7-0.5,0.9-0.8c0.2-0.2,0.3-0.5,0.3-0.8c0-0.3-0.1-0.5-0.2-0.7c-0.2-0.2-0.4-0.2-0.7-0.2
		C137.3,24.2,137.1,24.3,136.9,24.4z"/>
	<g>
		<path class="st0" d="M160.2,29.8c0.4,0.6,0.5,1.3,0.5,2.1c0,1.2-0.4,2.2-1.2,2.8c-0.8,0.7-1.9,1-3.5,1H150V21.9h5.8
			c1.4,0,2.5,0.3,3.3,1c0.8,0.7,1.1,1.5,1.1,2.7c0,0.7-0.1,1.3-0.4,1.8c-0.3,0.5-0.6,0.9-1.1,1.2C159.3,28.8,159.8,29.3,160.2,29.8z
			 M153.2,24.7v2.7h2.2c1.1,0,1.6-0.5,1.6-1.4c0-0.9-0.5-1.3-1.6-1.3H153.2z M157.5,31.5c0-0.9-0.6-1.4-1.7-1.4h-2.7V33h2.7
			C157,33,157.5,32.5,157.5,31.5z"/>
		<path class="st0" d="M167.4,32.1h-1.7v3.7h-3.2V21.9h5.2c1,0,1.9,0.2,2.7,0.6c0.8,0.4,1.3,1,1.7,1.8c0.4,0.8,0.6,1.7,0.6,2.7
			c0,1-0.2,1.9-0.6,2.6c-0.4,0.8-0.9,1.3-1.6,1.8l2.4,4.4h-3.4L167.4,32.1z M168.9,25.5c-0.3-0.4-0.8-0.5-1.5-0.5h-1.8v4.1h1.8
			c0.7,0,1.1-0.2,1.5-0.5c0.3-0.4,0.5-0.9,0.5-1.5C169.4,26.4,169.2,25.9,168.9,25.5z"/>
		<path class="st0" d="M181.9,33.1h-4.8l-0.9,2.7H173l5-13.9h3.1l5,13.9h-3.3L181.9,33.1z M181,30.2l-1.5-4.5l-1.5,4.5H181z"/>
		<path class="st0" d="M197.8,21.9v13.9h-2.6l-5-7.4v7.4H187V21.9h2.6l5,7.4v-7.4H197.8z"/>
		<path class="st0" d="M202.4,25H199v-3.1h10.1V25h-3.5v10.8h-3.2V25z"/>
		<path class="st0" d="M210.3,21.9h3.2v10.8h5.4v3.1h-8.6V21.9z"/>
		<path class="st0" d="M229.2,32.8v3h-9.1V21.9h8.9v3h-5.7v2.3h5v2.9h-5v2.5H229.2z"/>
		<path class="st0" d="M236.9,30.8v5h-3.2v-5.1l-4.3-8.9h3.4l2.7,5.5l2.7-5.5h3.1L236.9,30.8z"/>
	</g>
</g>
</svg>
