<?xml version="1.0" encoding="utf-8"?>
<!-- Generator: Adobe Illustrator 22.1.0, SVG Export Plug-In . SVG Version: 6.00 Build 0)  -->
<svg version="1.1" id="Layer_1" xmlns="http://www.w3.org/2000/svg" xmlns:xlink="http://www.w3.org/1999/xlink" x="0px" y="0px"
	 viewBox="0 0 413 96" style="enable-background:new 0 0 413 96;" xml:space="preserve">
<style type="text/css">
	.st0{fill:#33C1FA;}
	.st1{fill:#13172D;}
</style>
<g>
	<g>
		<path class="st0" d="M0,48.7c0.1-1.8,0.9-3.4,2.2-4.7C16,30.6,29.6,17.2,43.4,3.7c0.7-0.7,3.5-3.1,4.4-3.4c1.4-0.5,2.2-0.5,3,0.8
			C52,2.9,49.1,5,48.1,5.8c-6.7,5.3-12.1,11.8-16.4,19C20.4,43.5,22,64.2,35.9,81.3c3.4,4.3,7.8,8.3,11.8,12.1
			c0.6,0.6,1.1,1.1,0.5,2c-0.8,1.1-2,0.5-2.8,0c-1.1-0.7-2.2-1.6-3.1-2.5c-13-12.7-25.9-25.5-38.9-38.2C1.6,53,0,51.3,0,48.7z"/>
		<g>
			<path class="st1" d="M92.8,47.4L53.3,8.5C46.6,13.3,41.1,19,36.5,25.1c-1.6,2.1-3,4.3-4.2,6.5h8.3c1.2,0,2.3,0.1,3.4,0.2
				c1.6,0.2,3.1,0.7,4.4,1.3c2.2,1,3.9,2.5,5.1,4.3c0,0,0.1,0.1,0.1,0.1c1.1,1.8,1.7,4,1.7,6.5c0,0.6,0,1.1-0.1,1.6
				c-0.2,1.9-0.8,3.5-1.7,5c-0.2,0.3-0.4,0.6-0.6,0.8c-0.2,0.2-0.3,0.4-0.5,0.6c-0.2,0.2-0.4,0.5-0.7,0.7c-0.7,0.7-1.6,1.3-2.5,1.8
				c-0.3,0.2-0.6,0.3-0.9,0.4l3.4,5v0.1h0.1l4.1,6h-8.4L44,60.8l-3-4.4h-0.4h-6.8v9.6h-3.1c2.4,5.4,6.1,10.6,11,15.6
				c3.3,3.3,6.8,6.4,10.5,9.4l40.6-40C93.8,50,93.8,48.4,92.8,47.4z M72.7,63.6c-2.3,1.6-5.7,2.4-10.1,2.4h-5.5l-0.5-0.7L53,60.1
				h0.1h9c2.1,0,3.6-0.3,4.7-1c1-0.7,1.6-1.8,1.6-3.2c0-2.9-2.1-4.3-6.2-4.3h-8c0.2-0.3,0.4-0.5,0.6-0.8c0.9-1.4,1.5-3.1,1.7-5h4.3
				c1.9,0,3.4-0.3,4.4-1c1-0.7,1.5-1.7,1.5-3.1c0-1.3-0.5-2.4-1.5-3c-1-0.7-2.5-1-4.4-1h-5.9c-0.1-0.2-0.3-0.5-0.4-0.7
				c0,0-0.1-0.1-0.1-0.1c-1.2-1.9-2.9-3.3-5.1-4.3c-0.7-0.3-1.4-0.6-2.2-0.8h14.7c4.1,0,7.3,0.8,9.5,2.4c2.2,1.6,3.3,3.8,3.3,6.5
				c0,1.7-0.4,3.2-1.2,4.5c-0.8,1.3-1.9,2.3-3.3,3.1c1.9,0.6,3.5,1.7,4.6,3.1c1.1,1.5,1.6,3.3,1.6,5.4C76.2,59.7,75,62,72.7,63.6z"
				/>
			<path class="st1" d="M45.6,39.7c-0.4-0.4-1-0.7-1.6-0.9c-1-0.4-2.3-0.6-3.8-0.6h-5.7h-0.7v12h6.4c1.5,0,2.8-0.2,3.8-0.6
				c0.6-0.2,1.1-0.6,1.6-0.9c0.2-0.2,0.4-0.4,0.6-0.6c0.8-1,1.2-2.2,1.2-3.8C47.4,42.2,46.8,40.7,45.6,39.7z"/>
		</g>
	</g>
	<g>
		<path class="st1" d="M117.7,55h-3v6.3h-5.5V37.4h8.8c1.7,0,3.3,0.4,4.6,1.1c1.3,0.7,2.3,1.7,3,3.1c0.7,1.3,1,2.9,1,4.7
			c0,1.7-0.3,3.2-1,4.5c-0.7,1.3-1.6,2.3-2.8,3l4.2,7.5h-5.9L117.7,55z M120.3,43.7c-0.6-0.6-1.4-0.9-2.5-0.9h-3v7h3
			c1.1,0,2-0.3,2.5-0.9c0.6-0.6,0.9-1.5,0.9-2.6C121.2,45.2,120.9,44.3,120.3,43.7z"/>
		<path class="st1" d="M129.7,37.4h5.5v23.9h-5.5V37.4z"/>
		<path class="st1" d="M139.1,37.4h9.1c2.1,0,4,0.5,5.6,1.5c1.6,1,2.9,2.4,3.8,4.2c0.9,1.8,1.4,3.9,1.4,6.3c0,2.4-0.5,4.5-1.4,6.3
			c-0.9,1.8-2.2,3.2-3.8,4.2c-1.6,1-3.5,1.5-5.6,1.5h-9.1V37.4z M148,55.9c1.7,0,3-0.6,4-1.7c1-1.2,1.5-2.8,1.5-4.8
			s-0.5-3.6-1.5-4.8c-1-1.2-2.3-1.7-4-1.7h-3.5v13.1H148z"/>
		<path class="st1" d="M161.9,37.4h9.1c2.1,0,4,0.5,5.6,1.5c1.6,1,2.9,2.4,3.8,4.2c0.9,1.8,1.4,3.9,1.4,6.3c0,2.4-0.5,4.5-1.4,6.3
			c-0.9,1.8-2.2,3.2-3.8,4.2c-1.6,1-3.5,1.5-5.6,1.5h-9.1V37.4z M170.8,55.9c1.7,0,3-0.6,4-1.7c1-1.2,1.5-2.8,1.5-4.8
			s-0.5-3.6-1.5-4.8c-1-1.2-2.3-1.7-4-1.7h-3.5v13.1H170.8z"/>
		<path class="st1" d="M184.7,37.4h5.5V56h9.2v5.4h-14.7V37.4z"/>
		<path class="st1" d="M217,56.1v5.2h-15.5V37.4h15.2v5.2h-9.7v4h8.6v5h-8.6v4.4H217z"/>
	</g>
	<path class="st1" d="M243.4,61.7l-2.2-2.4c-0.9,0.8-1.9,1.4-3,1.8c-1.1,0.4-2.3,0.6-3.5,0.6c-1.5,0-2.8-0.3-3.9-0.9
		c-1.2-0.6-2.1-1.4-2.8-2.4c-0.7-1-1-2.2-1-3.4c0-1.5,0.3-2.8,1-3.9c0.6-1.1,1.7-2.2,3.1-3.1c-1.2-1.5-1.8-3.1-1.8-4.8
		c0-1.2,0.3-2.3,0.8-3.2c0.5-0.9,1.3-1.7,2.3-2.2c1-0.5,2.1-0.8,3.4-0.8c1.8,0,3.2,0.5,4.3,1.6c1.1,1,1.6,2.4,1.6,4.2
		c0,1.2-0.3,2.3-0.9,3.3c-0.6,1-1.5,1.9-2.7,2.7l2.8,3.1c0.4-1,0.7-2.1,0.9-3.4l4.2,1.6c-0.4,2-1,3.9-1.8,5.4l2,2.2L243.4,61.7z
		 M238.1,55.9l-4.2-4.6c-0.6,0.5-1,0.9-1.3,1.4c-0.3,0.5-0.4,1-0.4,1.7c0,0.7,0.3,1.3,0.8,1.8c0.5,0.5,1.3,0.7,2.2,0.7
		C236.2,56.8,237.1,56.5,238.1,55.9z M234.4,41.9c-0.3,0.3-0.5,0.8-0.5,1.3c0,0.4,0.1,0.8,0.3,1.1c0.2,0.4,0.5,0.8,1,1.4
		c0.7-0.5,1.3-0.9,1.6-1.3c0.3-0.4,0.5-0.9,0.5-1.3c0-0.5-0.1-0.9-0.4-1.2c-0.3-0.3-0.6-0.4-1.1-0.4
		C235.1,41.4,234.7,41.5,234.4,41.9z"/>
	<g>
		<path class="st1" d="M274.3,51.1c0.6,1,0.9,2.2,0.9,3.7c0,2.1-0.7,3.7-2,4.8s-3.3,1.7-5.9,1.7h-10.4V37.4h9.9
			c2.5,0,4.3,0.6,5.6,1.7c1.3,1.1,1.9,2.6,1.9,4.6c0,1.1-0.2,2.2-0.7,3.1c-0.5,0.9-1.1,1.6-1.9,2.1
			C272.8,49.3,273.7,50.1,274.3,51.1z M262.3,42.3v4.6h3.8c1.8,0,2.8-0.8,2.8-2.3c0-1.5-0.9-2.3-2.8-2.3H262.3z M269.7,54
			c0-1.6-1-2.4-2.9-2.4h-4.6v4.8h4.6C268.8,56.4,269.7,55.6,269.7,54z"/>
		<path class="st1" d="M286.6,55h-3v6.3h-5.5V37.4h8.8c1.7,0,3.3,0.4,4.6,1.1c1.3,0.7,2.3,1.7,3,3.1c0.7,1.3,1,2.9,1,4.7
			c0,1.7-0.3,3.2-1,4.5c-0.7,1.3-1.6,2.3-2.8,3l4.2,7.5h-5.9L286.6,55z M289.2,43.7c-0.6-0.6-1.4-0.9-2.5-0.9h-3v7h3
			c1.1,0,2-0.3,2.5-0.9c0.6-0.6,0.9-1.5,0.9-2.6C290,45.2,289.7,44.3,289.2,43.7z"/>
		<path class="st1" d="M311.5,56.7h-8.2l-1.5,4.6h-5.6l8.5-23.9h5.4l8.6,23.9H313L311.5,56.7z M309.9,51.7l-2.5-7.6l-2.5,7.6H309.9z
			"/>
		<path class="st1" d="M338.6,37.4v23.9h-4.5l-8.5-12.7v12.7h-5.4V37.4h4.5l8.5,12.7V37.4H338.6z"/>
		<path class="st1" d="M346.6,42.8h-5.9v-5.4H358v5.4h-5.9v18.5h-5.5V42.8z"/>
		<path class="st1" d="M360,37.4h5.5V56h9.2v5.4H360V37.4z"/>
		<path class="st1" d="M392.4,56.1v5.2h-15.5V37.4H392v5.2h-9.7v4h8.6v5h-8.6v4.4H392.4z"/>
		<path class="st1" d="M405.6,52.7v8.6h-5.5v-8.7l-7.4-15.2h5.8l4.6,9.5l4.6-9.5h5.3L405.6,52.7z"/>
	</g>
</g>
</svg>
