<svg id="new_sp_1" data-name="Layer 2" xmlns="http://www.w3.org/2000/svg" viewBox="0 0 155.7 121"><defs><style>.new_sp_1-cls-1{fill:#c1ced4;}.cls-2{fill:#2e3133;}.cls-3{fill:#33c1fc;}.cls-4{fill:#fff;}</style></defs><title>sp_icon_01</title><path class="new_sp_1-cls-1" d="M91.3,5.3a8.24,8.24,0,0,0-8.2,8.2V71.6a8.19,8.19,0,0,1-8.2,8.2h52.6a8.24,8.24,0,0,0,8.2-8.2V13.5a8.24,8.24,0,0,1,8.2-8.2Z"/><path class="new_sp_1-cls-1" d="M43.8,41.5a8.24,8.24,0,0,0-8.2,8.2v58.1a8.24,8.24,0,0,1-8.2,8.2H80a8.24,8.24,0,0,0,8.2-8.2V49.7a8.24,8.24,0,0,1,8.2-8.2Z"/><path class="cls-2" d="M120.4,77.4H95.9v-3h24.5a6.7,6.7,0,0,0,6.7-6.7V9.7A9.62,9.62,0,0,1,129.8,3H84.1a6.7,6.7,0,0,0-6.7,6.7V45.1h-3V9.7A9.71,9.71,0,0,1,84.1,0h52.6V3A6.7,6.7,0,0,0,130,9.7V67.8A9.54,9.54,0,0,1,120.4,77.4Z"/><path class="cls-2" d="M120.4,77.4a9.71,9.71,0,0,1-9.7-9.7V53.2a6.7,6.7,0,0,0-6.7-6.7v-3a9.71,9.71,0,0,1,9.7,9.7V67.7a6.7,6.7,0,0,0,6.7,6.7Z"/><path class="cls-2" d="M87.7,121v-3a6.7,6.7,0,0,0,6.7-6.7V53.2a9.62,9.62,0,0,1,2.7-6.7H51.4a6.7,6.7,0,0,0-6.7,6.7v58.1h-3V53.2a9.71,9.71,0,0,1,9.7-9.7H104v3a6.7,6.7,0,0,0-6.7,6.7v58.1A9.56,9.56,0,0,1,87.7,121Z"/><path class="cls-2" d="M87.7,121H35.1a9.71,9.71,0,0,1-9.7-9.7v-1.5H81v1.5a6.7,6.7,0,0,0,6.7,6.7Zm-59.1-8.2a6.65,6.65,0,0,0,6.5,5.2H80.7a9.91,9.91,0,0,1-2.6-5.2Z"/><path class="cls-2" d="M146.4,11.2H128.6v-3h14.7A6.65,6.65,0,0,0,136.8,3V0a9.71,9.71,0,0,1,9.7,9.7v1.5Z"/><rect class="cls-3" y="65.8" width="53.5" height="37.2"/><rect class="cls-3" x="109.6" y="89.1" width="42" height="27.5"/><polygon class="cls-4" points="144 96.6 142.4 97.2 140.8 100.1 139.2 100.3 137.6 101.8 136 101.1 134.1 99.8 132.8 101.6 131.1 102.6 129.5 101.4 127.9 102.4 126.3 102.9 124.7 105.7 123.1 106.6 121.5 105.2 119.9 104.6 118.3 107.2 116.7 106.6 115.1 107.9 113.4 108.1 113.4 111.8 147.3 111.8 147.3 93.8 145.6 94.1 144 96.6"/><path class="cls-2" d="M149.9,113.3h-45V82.8h45Zm-42.1-3h39V85.8h-39Z"/><rect class="cls-3" x="102.9" y="15" width="47.8" height="23.8"/><rect class="cls-2" x="30.2" y="6" width="29.9" height="3"/><rect class="cls-2" x="36.1" y="12.5" width="32.6" height="3"/><rect class="cls-2" x="36.1" y="19" width="32.6" height="3"/><rect class="cls-2" x="36.1" y="25.6" width="32.6" height="3"/><rect class="cls-2" x="36.1" y="32.1" width="12.7" height="3"/><rect class="cls-4" x="65.6" y="65.6" width="18.1" height="3"/><rect class="cls-4" x="65.6" y="72.1" width="18.1" height="3"/><rect class="cls-4" x="65.6" y="78.7" width="18.1" height="3"/><rect class="cls-4" x="65.6" y="85.2" width="7" height="3"/><rect class="cls-4" x="90.7" y="20.1" width="17.3" height="3"/><rect class="cls-4" x="90.7" y="26.6" width="32.6" height="3"/><rect class="cls-2" x="139.2" y="30.7" width="16.5" height="3"/><rect class="cls-2" x="139.2" y="37.2" width="16.5" height="3"/><rect class="cls-2" x="139.2" y="43.7" width="9.3" height="3"/><polygon class="cls-4" points="22.1 95.4 12.2 87.5 14.7 84.3 21.4 89.7 33.3 74 36.5 76.4 22.1 95.4"/></svg>