<svg id="acc_one" data-name="Layer 1" xmlns="http://www.w3.org/2000/svg" width="148.5" height="34.9" viewBox="0 0 148.5 34.9"><defs><style>.acc_one-cls-1{fill:#fff;}</style></defs><title>hero_awards_01</title><path class="acc_one-cls-1" d="M4.7,26.4A11,11,0,0,1,2.6,26c-.3,0-.4.3-.4.6l-1.4.1L0,21.4l1.5-.2c.2,1.6.8,3.4,2.5,3.4,1.9,0,2.5-1.5,2.5-3.1a12.63,12.63,0,0,0-1.2-4.4c-1.2-2.2-3-5.9-3.9-7.5A10.59,10.59,0,0,1,.3,5.2C.3,1.8,2,0,5.3,0A9.73,9.73,0,0,1,7.7.4c.4,0,.5-.1.6-.4L9.7.2,9.1,5.4,7.5,5.2a4.29,4.29,0,0,0,0-1.6c-.2-1-.5-1.9-1.8-1.9s-1.9.9-1.9,2.4A9,9,0,0,0,5,7.7c1.5,3,2.9,5.8,3.8,7.7a12.73,12.73,0,0,1,1.3,4.9c0,3.6-1.4,6.1-5.4,6.1"/><path class="acc_one-cls-1" d="M18.9,26.3V24.1c-1.2,1.8-2.2,2.3-3.9,2.3s-3.2-1.3-3.2-4.3V13.3c0-.9.1-1.5-.4-1.5a1.91,1.91,0,0,0-.8.3L10.2,11l5.1-2.2V21.7c0,1.9.3,2.5,1.2,2.5,1.3,0,2.1-1.6,2.1-3.8V13.6c0-.7.1-1.7-.5-1.7a1.33,1.33,0,0,0-.8.3L16.8,11l5.1-2.2V23.3c0,1.2.1,1.4.5,1.4a3.54,3.54,0,0,0,.6-.1l.1,1.1c-1.7.2-4.2.6-4.2.6"/><path class="acc_one-cls-1" d="M30.8,26.4a4,4,0,0,1-2.4-.7v6.8c0,1,.1,1.2.8,1.2h.2v1.2H23.9V33.7h.3c.7,0,.8-.1.8-1.2v-19c0-.6,0-1.6-.4-1.6a4.71,4.71,0,0,0-.9.3l-.5-1,4.7-2.3v2.6c1-1.8,2.1-2.6,3.6-2.6,2,0,4.2,1.4,4.2,8.9.1,6.2-2.6,8.6-4.9,8.6m-.5-15.3c-1.2,0-2,2.4-2,4.3V22c0,1.8.8,2.7,1.9,2.7s1.9-2.5,1.9-6.8c0-5.8-.7-6.8-1.8-6.8"/><path class="acc_one-cls-1" d="M40.9,18.9c0,5.3,1.1,5.9,2.5,5.9s2.3-1.2,2.8-2.5l1.2.6c-.7,1.9-2,3.5-4.6,3.5-3,0-5.5-2.7-5.5-8.4,0-6.6,2.9-9.1,5.4-9.1,2.7,0,4.8,2.4,4.9,6.7Zm1.6-8.8c-1.1,0-1.6,2-1.6,6.9,1.3-.7,2-1,2.7-1.4.2-.1.2-.3.2-1.1,0-2.7-.3-4.4-1.3-4.4"/><path class="acc_one-cls-1" d="M57.7,13.5l-1.3-.1a1.66,1.66,0,0,0,0-1.2c-.2-.5-.4-.6-1-.6-1,0-2,1.9-2,3.8V24c0,.8.1,1,.7,1h.4v1.2H49V25h.3c.7,0,.8-.1.8-1V13c0-.6,0-1.1-.5-1.1a4.12,4.12,0,0,0-.8.3L48.3,11,53,8.8v3.1c1.1-2.1,2.2-3.1,3.8-3.1A5.47,5.47,0,0,1,58,9Z"/><path class="acc_one-cls-1" d="M73.7,26.6l-1.4-.1c0-.2,0-.4-.7-.4H63.3V24.8h.4c.7,0,.9-.2.9-1.2V2.8c0-1.1-.1-1.2-.9-1.2h-.4V.3h6.5V1.6h-.4c-.8,0-1,.2-1,1.2V24.6H70c2.2,0,2.7-.7,3.1-3.1l1.3.2Z"/><path class="acc_one-cls-1" d="M81.9,26.4V24.5a3.48,3.48,0,0,1-3.1,1.9c-2,0-3.6-1.1-3.6-4.7s3.1-6,6.2-6.6V13.6c0-2.1-.4-3-1.9-3a5.46,5.46,0,0,0-2.6,1.3l-.8-1.1c1.2-.9,2.6-2.1,4.8-2.1,2.4,0,3.9,1.5,3.9,4.7v9.7c0,1.5.2,1.6.7,1.5a1,1,0,0,0,.4-.1l.1,1.2c-1.5.3-2.6.4-4.1.7m-.5-10c-1.6.4-2.9,2.4-2.9,4.5,0,2.4.3,3.3,1.3,3.4s1.6-1,1.6-2.5Z"/><path class="acc_one-cls-1" d="M104.1,10.3c-.6,0-.8.3-1,1.5-.9,4.4-1.7,8.2-2.8,13.6a1.58,1.58,0,0,0,0,.7H96.8c-.5-2.6-1.1-5.8-1.8-8.7-.5,2.4-1,4.9-1.7,8a1.7,1.7,0,0,0,.1.7H89.9C89,21.6,87.8,15.7,87,11.6c-.2-1.2-.5-1.3-1.1-1.3h-.3V9.1h6.1v1.2h-.1c-1,0-.9.4-.9.8,0,.1.1.7.1.9.6,3.3.8,4.6,1.4,7.9.2,1,.3,1.9.5,3.2a25.15,25.15,0,0,1,.5-3.1c.4-1.9,1.2-6.3,1.2-6.3l-.4-2c-.2-1.2-.4-1.3-1-1.3h-.2V9.1h6.1v1.2h-.2c-1,0-1,.4-1,.8,0,.1.1.7.1.9.5,3.2.8,4.6,1.4,7.9.2,1,.3,1.9.5,3.2a25.15,25.15,0,0,1,.5-3.1c.3-1.6.8-4.7,1.3-7.3,0,0,.3-1.4.3-1.7s-.2-.6-.7-.6h-.2V9.1h3.5v1.2Z"/><path class="acc_one-cls-1" d="M115.2,10.3c-.7,0-.8.2-1.1,1.3-1,4.4-3.5,14.6-5.5,22.6h-3.2c.2-.4.5-1.1.8-1.6,1-2.2,1.5-3.8,2.2-5.6l-3.5-15c-.2-1.1-.4-1.7-1.1-1.7h-.4V9.1h6.3v1.2h-.2c-.8,0-1,.2-1,.8a15,15,0,0,0,.3,1.7c.5,2.3.9,4.9,1.1,6s.3,1.5.4,2.5a18.43,18.43,0,0,1,.5-2.5c.2-1,.8-3.7,1.4-6.2a10.4,10.4,0,0,0,.2-1.5c0-.5-.1-.8-.8-.8h-.1V9.1h3.7v1.2Z"/><path class="acc_one-cls-1" d="M118.7,18.9c0,5.3,1.1,5.9,2.5,5.9s2.3-1.2,2.8-2.5l1.2.6c-.7,1.9-2,3.5-4.6,3.5-3,0-5.5-2.7-5.5-8.4,0-6.6,2.9-9.1,5.4-9.1,2.7,0,4.8,2.4,4.9,6.7Zm1.6-8.8c-1.1,0-1.6,2-1.6,6.9,1.3-.7,2-1,2.7-1.4.2-.1.2-.3.2-1.1,0-2.7-.4-4.4-1.3-4.4"/><path class="acc_one-cls-1" d="M135.3,13.5l-1.3-.1a1.66,1.66,0,0,0,0-1.2c-.2-.5-.4-.6-1-.6-1,0-2,1.9-2,3.8V24c0,.8.1,1,.7,1h.4v1.2h-5.5V25h.3c.7,0,.8-.1.8-1V13c0-.6,0-1.1-.5-1.1a2.61,2.61,0,0,0-.8.3L126,11l4.7-2.2v3.1c1.1-2.1,2.2-3.1,3.8-3.1a5.47,5.47,0,0,1,1.2.2Z"/><path class="acc_one-cls-1" d="M141.2,26.2a17.78,17.78,0,0,1-2-.3.37.37,0,0,0-.4.4l-1.3.2-1-4.3,1.3-.3c.3,1.6,1.2,2.6,2.7,2.6a1.83,1.83,0,0,0,2-2,5.39,5.39,0,0,0-1.6-3.3c-1.1-1.2-2.1-2.5-3-3.5a4.77,4.77,0,0,1-1.2-3.1c0-2.4,2-3.9,4.4-3.9a14.94,14.94,0,0,1,2.2.4c.4,0,.4-.1.5-.4l1.2.2-.4,4.3-1.4-.1a3.93,3.93,0,0,0-.1-1.9,1.45,1.45,0,0,0-1.5-1,1.62,1.62,0,0,0-1.8,1.5,4.07,4.07,0,0,0,1.3,2.5c1.2,1.4,1.7,1.9,2.3,2.7a7.46,7.46,0,0,1,2.2,4.8,4.17,4.17,0,0,1-4.4,4.5"/><path class="acc_one-cls-1" d="M147.1,8.9a1.35,1.35,0,0,1,1.4,1.3,1.29,1.29,0,0,1-1.4,1.3,1.35,1.35,0,0,1-1.4-1.3,1.42,1.42,0,0,1,1.4-1.3m0,2.5a1,1,0,0,0,1.1-1.1,1.11,1.11,0,0,0-1.1-1.1,1,1,0,0,0-1.1,1.1,1,1,0,0,0,1.1,1.1m.3-1,.4.5h-.4l-.3-.5H147v.5h-.3V9.6h.5c.3,0,.5.1.5.4s-.1.3-.3.4m-.2-.6H147v.4h.2a.2.2,0,1,0,0-.4"/></svg>