<svg id="new_twitter" data-name="Layer 1" xmlns="http://www.w3.org/2000/svg" viewBox="0 0 26.8 21.8"><defs><style>.social-cls-1{fill:#13182e;}</style></defs><title>footer_icon_02</title><path class="social-cls-1" d="M26.8,2.6a15,15,0,0,1-3.2.9A5.89,5.89,0,0,0,26,.5a11.38,11.38,0,0,1-3.4,1.2,5.28,5.28,0,0,0-4-1.7,5.55,5.55,0,0,0-5.5,5.5,5.7,5.7,0,0,0,.1,1.3A15.86,15.86,0,0,1,1.9,1a5.38,5.38,0,0,0-.8,2.8A5.72,5.72,0,0,0,3.5,8.4,5.2,5.2,0,0,1,1,7.7v.1a5.48,5.48,0,0,0,4.4,5.4,6.15,6.15,0,0,1-1.4.1,3.08,3.08,0,0,1-1-.1A5.37,5.37,0,0,0,8.1,17a11,11,0,0,1-6.8,2.4A5.7,5.7,0,0,1,0,19.3a15.09,15.09,0,0,0,8.4,2.5A15.62,15.62,0,0,0,24.1,6.1V5.4A9,9,0,0,0,26.8,2.6Z" transform="translate(0)"/></svg>