<svg id="new_sp_2" data-name="Layer 2" xmlns="http://www.w3.org/2000/svg" viewBox="0 0 131.2 122.8"><defs><style>.new_sp_2-cls-1{fill:#c1ced4;}.new_sp_2-cls-2{fill:#2e3133;}.new_sp_2-cls-3{fill:#33c1fc;}.new_sp_2-cls-4{fill:#fff;}</style></defs><title>sp_icon_02</title><path class="new_sp_2-cls-1" d="M93.4,10.9H37.5a7.17,7.17,0,0,0-7.2,7.2v97.5a7.17,7.17,0,0,0,7.2,7.2H93.4a7.17,7.17,0,0,0,7.2-7.2V18.1A7.17,7.17,0,0,0,93.4,10.9Zm-.8,93.9H38.3V28.9H92.6Z"/><path class="new_sp_2-cls-2" d="M94.1,106.3H36.8V27.4H94.1Zm-54.3-3H91.1V30.4H39.8Z"/><rect class="new_sp_2-cls-2" x="55.5" y="112.8" width="20" height="3"/><polygon class="new_sp_2-cls-3" points="83.1 0 83.1 51.1 27.5 51.1 12.1 66.5 12.1 51.1 2.7 51.1 2.7 0 83.1 0"/><rect class="new_sp_2-cls-3" x="57" y="62" width="74.2" height="36.5"/><rect class="new_sp_2-cls-4" x="73.1" y="73.7" width="4.9" height="4.9"/><rect class="new_sp_2-cls-4" x="80.5" y="73.7" width="4.9" height="4.9"/><rect class="new_sp_2-cls-4" x="88" y="73.7" width="4.9" height="4.9"/><rect class="new_sp_2-cls-4" x="95.4" y="73.7" width="4.9" height="4.9"/><rect class="new_sp_2-cls-4" x="102.8" y="73.7" width="4.9" height="4.9"/><rect class="new_sp_2-cls-4" x="110.2" y="73.7" width="4.9" height="4.9"/><rect class="new_sp_2-cls-4" x="117.7" y="73.7" width="4.9" height="4.9"/><rect class="new_sp_2-cls-4" x="69.4" y="81.1" width="4.9" height="4.9"/><rect class="new_sp_2-cls-4" x="76.8" y="81.1" width="4.9" height="4.9"/><rect class="new_sp_2-cls-4" x="84.3" y="81.1" width="4.9" height="4.9"/><rect class="new_sp_2-cls-4" x="91.7" y="81.1" width="4.9" height="4.9"/><rect class="new_sp_2-cls-4" x="99.1" y="81.1" width="4.9" height="4.9"/><rect class="new_sp_2-cls-4" x="106.5" y="81.1" width="4.9" height="4.9"/><rect class="new_sp_2-cls-4" x="113.9" y="81.1" width="4.9" height="4.9"/><rect class="new_sp_2-cls-4" x="121.4" y="81.1" width="4.9" height="4.9"/><rect class="new_sp_2-cls-4" x="73.1" y="88.6" width="4.9" height="4.9"/><rect class="new_sp_2-cls-4" x="80.5" y="88.6" width="34.6" height="4.9"/><rect class="new_sp_2-cls-4" x="117.7" y="88.6" width="4.9" height="4.9"/><rect class="new_sp_2-cls-4" x="9.9" y="12.7" width="40.9" height="3"/><rect class="new_sp_2-cls-4" x="9.9" y="17.8" width="40.9" height="3"/><rect class="new_sp_2-cls-4" x="9.9" y="22.9" width="11.2" height="3"/><rect class="new_sp_2-cls-2" y="95.3" width="11.1" height="3"/><rect class="new_sp_2-cls-2" y="90.2" width="26.1" height="3"/><rect class="new_sp_2-cls-2" y="85.1" width="19.5" height="3"/></svg>