<svg id="mobile-logo" data-name="Layer 1" xmlns="http://www.w3.org/2000/svg" viewBox="0 0 413 96.03"><defs><style>.mobile-logo-cls-1{fill:#fff;}.mobile-logo-cls-2{fill:#fff;}</style></defs><title>new_mobile-logo</title><path class="mobile-logo-cls-1" d="M0,48.7A7.15,7.15,0,0,1,2.2,44C16,30.6,29.6,17.2,43.4,3.7A23.57,23.57,0,0,1,47.8.3c1.4-.5,2.2-.5,3,.8C52,2.9,49.1,5,48.1,5.8a69.23,69.23,0,0,0-16.4,19C20.4,43.5,22,64.2,35.9,81.3c3.4,4.3,7.8,8.3,11.8,12.1.6.6,1.1,1.1.5,2-.8,1.1-2,.5-2.8,0a18.85,18.85,0,0,1-3.1-2.5C29.3,80.2,16.4,67.4,3.4,54.7,1.6,53,0,51.3,0,48.7Z" transform="translate(0 0.01)"/><path class="mobile-logo-cls-2" d="M92.8,47.4,53.3,8.5A77.87,77.87,0,0,0,36.5,25.1a51.22,51.22,0,0,0-4.2,6.5h8.3c1.2,0,2.3.1,3.4.2a15,15,0,0,1,4.4,1.3,12,12,0,0,1,5.1,4.3l.1.1A12.33,12.33,0,0,1,55.3,44a8.08,8.08,0,0,1-.1,1.6,11.89,11.89,0,0,1-1.7,5,5.55,5.55,0,0,1-.6.8c-.2.2-.3.4-.5.6a4.62,4.62,0,0,1-.7.7,11.38,11.38,0,0,1-2.5,1.8,3.55,3.55,0,0,1-.9.4l3.4,5V60h.1l4.1,6H47.5L44,60.8l-3-4.4H33.8V66H30.7a53.74,53.74,0,0,0,11,15.6A135.11,135.11,0,0,0,52.2,91L92.8,51A2.53,2.53,0,0,0,92.8,47.4ZM72.7,63.6C70.4,65.2,67,66,62.6,66H57.1l-.5-.7L53,60.1h9.1a8.65,8.65,0,0,0,4.7-1,3.76,3.76,0,0,0,1.6-3.2c0-2.9-2.1-4.3-6.2-4.3h-8c.2-.3.4-.5.6-.8a11.43,11.43,0,0,0,1.7-5h4.3a7.75,7.75,0,0,0,4.4-1,3.5,3.5,0,0,0,1.5-3.1,3.33,3.33,0,0,0-1.5-3,7.75,7.75,0,0,0-4.4-1H54.9c-.1-.2-.3-.5-.4-.7l-.1-.1a11.38,11.38,0,0,0-5.1-4.3,14.27,14.27,0,0,0-2.2-.8H61.8c4.1,0,7.3.8,9.5,2.4a7.66,7.66,0,0,1,3.3,6.5,8.41,8.41,0,0,1-1.2,4.5,9,9,0,0,1-3.3,3.1,9.44,9.44,0,0,1,4.6,3.1,8.85,8.85,0,0,1,1.6,5.4A8.21,8.21,0,0,1,72.7,63.6Z" transform="translate(0 0.01)"/><path class="mobile-logo-cls-2" d="M45.6,39.7a4.17,4.17,0,0,0-1.6-.9,10.44,10.44,0,0,0-3.8-.6H33.8v12h6.4a10.44,10.44,0,0,0,3.8-.6,8.27,8.27,0,0,0,1.6-.9l.6-.6a5.77,5.77,0,0,0,1.2-3.8A5.6,5.6,0,0,0,45.6,39.7Z" transform="translate(0 0.01)"/><path class="mobile-logo-cls-2" d="M117.7,55h-3v6.3h-5.5V37.4H118a9.77,9.77,0,0,1,4.6,1.1,6.93,6.93,0,0,1,3,3.1,9.88,9.88,0,0,1,1,4.7,9.33,9.33,0,0,1-1,4.5,7.39,7.39,0,0,1-2.8,3l4.2,7.5h-5.9Zm2.6-11.3a3.33,3.33,0,0,0-2.5-.9h-3v7h3a3.18,3.18,0,0,0,2.5-.9,4.21,4.21,0,0,0,0-5.2Z" transform="translate(0 0.01)"/><path class="mobile-logo-cls-2" d="M129.7,37.4h5.5V61.3h-5.5Z" transform="translate(0 0.01)"/><path class="mobile-logo-cls-2" d="M139.1,37.4h9.1a10.13,10.13,0,0,1,9.4,5.7,14.88,14.88,0,0,1,0,12.6,10.13,10.13,0,0,1-9.4,5.7h-9.1ZM148,55.9a5.13,5.13,0,0,0,4-1.7,7.26,7.26,0,0,0,1.5-4.8,7.26,7.26,0,0,0-1.5-4.8,4.82,4.82,0,0,0-4-1.7h-3.5V56H148Z" transform="translate(0 0.01)"/><path class="mobile-logo-cls-2" d="M161.9,37.4H171a10.13,10.13,0,0,1,9.4,5.7,14.88,14.88,0,0,1,0,12.6,10.13,10.13,0,0,1-9.4,5.7h-9.1Zm8.9,18.5a5.13,5.13,0,0,0,4-1.7,7.26,7.26,0,0,0,1.5-4.8,7.26,7.26,0,0,0-1.5-4.8,4.82,4.82,0,0,0-4-1.7h-3.5V56h3.5Z" transform="translate(0 0.01)"/><path class="mobile-logo-cls-2" d="M184.7,37.4h5.5V56h9.2v5.4H184.7Z" transform="translate(0 0.01)"/><path class="mobile-logo-cls-2" d="M217,56.1v5.2H201.5V37.4h15.2v5.2H207v4h8.6v5H207V56h10Z" transform="translate(0 0.01)"/><path class="mobile-logo-cls-2" d="M243.4,61.7l-2.2-2.4a9.23,9.23,0,0,1-3,1.8,10.3,10.3,0,0,1-3.5.6,8,8,0,0,1-3.9-.9,7.32,7.32,0,0,1-2.8-2.4,5.89,5.89,0,0,1-1-3.4,7.09,7.09,0,0,1,1-3.9,9.15,9.15,0,0,1,3.1-3.1,7.55,7.55,0,0,1-1.8-4.8,6.6,6.6,0,0,1,.8-3.2,5.44,5.44,0,0,1,2.3-2.2,7.42,7.42,0,0,1,3.4-.8,5.73,5.73,0,0,1,4.3,1.6,5.36,5.36,0,0,1,1.6,4.2,6.29,6.29,0,0,1-.9,3.3,8.67,8.67,0,0,1-2.7,2.7l2.8,3.1a15.28,15.28,0,0,0,.9-3.4l4.2,1.6a20.15,20.15,0,0,1-1.8,5.4l2,2.2Zm-5.3-5.8-4.2-4.6a5.54,5.54,0,0,0-1.3,1.4,3.06,3.06,0,0,0-.4,1.7,2.5,2.5,0,0,0,.8,1.8,3.07,3.07,0,0,0,2.2.7A6.71,6.71,0,0,0,238.1,55.9Zm-3.7-14a1.9,1.9,0,0,0-.5,1.3,2,2,0,0,0,.3,1.1,7.57,7.57,0,0,0,1,1.4,8,8,0,0,0,1.6-1.3,2.35,2.35,0,0,0,.5-1.3,1.59,1.59,0,0,0-.4-1.2,1.37,1.37,0,0,0-1.1-.4C235.1,41.4,234.7,41.5,234.4,41.9Z" transform="translate(0 0.01)"/><path class="mobile-logo-cls-2" d="M274.3,51.1a7,7,0,0,1,.9,3.7,6,6,0,0,1-2,4.8,9,9,0,0,1-5.9,1.7H256.9V37.4h9.9a8.32,8.32,0,0,1,5.6,1.7,5.62,5.62,0,0,1,1.9,4.6,6.43,6.43,0,0,1-.7,3.1,5.54,5.54,0,0,1-1.9,2.1A5.1,5.1,0,0,1,274.3,51.1Zm-12-8.8v4.6h3.8c1.8,0,2.8-.8,2.8-2.3s-.9-2.3-2.8-2.3ZM269.7,54c0-1.6-1-2.4-2.9-2.4h-4.6v4.8h4.6C268.8,56.4,269.7,55.6,269.7,54Z" transform="translate(0 0.01)"/><path class="mobile-logo-cls-2" d="M286.6,55h-3v6.3h-5.5V37.4h8.8a9.77,9.77,0,0,1,4.6,1.1,6.93,6.93,0,0,1,3,3.1,9.88,9.88,0,0,1,1,4.7,9.33,9.33,0,0,1-1,4.5,7.39,7.39,0,0,1-2.8,3l4.2,7.5H290Zm2.6-11.3a3.33,3.33,0,0,0-2.5-.9h-3v7h3a3.18,3.18,0,0,0,2.5-.9,3.57,3.57,0,0,0,.9-2.6A4.72,4.72,0,0,0,289.2,43.7Z" transform="translate(0 0.01)"/><path class="mobile-logo-cls-2" d="M311.5,56.7h-8.2l-1.5,4.6h-5.6l8.5-23.9h5.4l8.6,23.9H313Zm-1.6-5-2.5-7.6-2.5,7.6Z" transform="translate(0 0.01)"/><path class="mobile-logo-cls-2" d="M338.6,37.4V61.3h-4.5l-8.5-12.7V61.3h-5.4V37.4h4.5l8.5,12.7V37.4Z" transform="translate(0 0.01)"/><path class="mobile-logo-cls-2" d="M346.6,42.8h-5.9V37.4H358v5.4h-5.9V61.3h-5.5Z" transform="translate(0 0.01)"/><path class="mobile-logo-cls-2" d="M360,37.4h5.5V56h9.2v5.4H360Z" transform="translate(0 0.01)"/><path class="mobile-logo-cls-2" d="M392.4,56.1v5.2H376.9V37.4H392v5.2h-9.7v4h8.6v5h-8.6V56h10.1Z" transform="translate(0 0.01)"/><path class="mobile-logo-cls-2" d="M405.6,52.7v8.6h-5.5V52.6l-7.4-15.2h5.8l4.6,9.5,4.6-9.5H413Z" transform="translate(0 0.01)"/></svg>