<svg id="new_sp_3" data-name="Layer 2" xmlns="http://www.w3.org/2000/svg" viewBox="0 0 141.6 126.8"><defs><style>.new_sp_3-cls-1{fill:#46c7fc;}.new_sp_3-cls-2{fill:#2e3133;}</style></defs><title>sp_icon_03</title><path class="new_sp_3-cls-1" d="M72.7,25a48.1,48.1,0,1,0,48.1,48.1A48.06,48.06,0,0,0,72.7,25Zm0,76a27.9,27.9,0,1,1,27.9-27.9A27.91,27.91,0,0,1,72.7,101Z"/><path class="new_sp_3-cls-2" d="M72.7,112.6c-1,0-2,0-3-.1l.2-3a26.2,26.2,0,0,0,2.8.1h.2v3Zm3.2-.1-.2-3,2.8-.3.5,3Zm-9.2-.3c-1-.2-2-.3-3-.6l.7-2.9a25.58,25.58,0,0,0,2.7.5Zm15.2-.6-.7-2.9a27.59,27.59,0,0,0,2.7-.8l.9,2.9C83.9,111,82.9,111.3,81.9,111.6Zm-21.1-.8c-1-.3-1.9-.6-2.9-1L59,107a26.72,26.72,0,0,0,2.6.9Zm26.8-1.1-1.1-2.8a19.23,19.23,0,0,0,2.5-1.2l1.3,2.7A16.94,16.94,0,0,1,87.6,109.7Zm-32.4-1.2c-.9-.4-1.8-.9-2.7-1.4l1.5-2.6a19.65,19.65,0,0,0,2.5,1.3ZM93.1,107l-1.5-2.6c.8-.5,1.6-1,2.3-1.5l1.7,2.4C94.8,105.9,93.9,106.5,93.1,107ZM50,105.4l-2.4-1.8,1.9-2.3c.7.6,1.5,1.2,2.2,1.7Zm48-1.9-1.9-2.3c.7-.6,1.4-1.2,2.1-1.9l2.1,2.2Zm-52.7-1.9c-.7-.7-1.4-1.4-2.1-2.2l2.2-2c.6.7,1.3,1.4,1.9,2Zm57-2.3-2.2-2c.6-.7,1.2-1.4,1.8-2.2l2.4,1.8C103.6,97.8,103,98.5,102.3,99.3Zm-61-2.2a22,22,0,0,1-1.7-2.5L42.1,93c.5.8,1,1.5,1.6,2.3ZM106,94.5l-2.5-1.6c.5-.8,1-1.6,1.4-2.4l2.6,1.4C107,92.8,106.5,93.6,106,94.5ZM38,92c-.5-.9-.9-1.8-1.3-2.7l2.7-1.2c.4.8.8,1.7,1.2,2.5Zm70.8-2.8L106.1,88a20,20,0,0,0,1-2.6l2.8,1A20.16,20.16,0,0,1,108.8,89.2ZM35.5,86.5c-.3-.9-.6-1.9-.9-2.9l2.9-.8a27.59,27.59,0,0,0,.8,2.7Zm75.4-3-2.9-.8a26.14,26.14,0,0,0,.6-2.7l2.9.6C111.4,81.5,111.1,82.5,110.9,83.5Zm-77-2.8c-.2-1-.3-2-.5-3l3-.3c.1.9.2,1.8.4,2.8ZM112,77.5l-3-.3a26.35,26.35,0,0,0,.2-2.8l3,.1C112.2,75.5,112.1,76.5,112,77.5ZM33.3,74.7V71.6l3,.1v2.8Zm75.9-3.1a26.35,26.35,0,0,0-.2-2.8l3-.3c.1,1,.2,2,.2,3ZM36.5,69l-3-.3c.1-1,.3-2,.5-3l2.9.6A19.34,19.34,0,0,0,36.5,69Zm72.1-3-.6-2.7,2.9-.8c.3,1,.5,2,.7,2.9ZM37.5,63.5l-2.9-.8c.3-1,.6-1.9.9-2.9l2.8,1C38,61.7,37.8,62.6,37.5,63.5Zm69.6-2.8c-.3-.9-.7-1.7-1.1-2.6l2.7-1.2c.4.9.8,1.9,1.1,2.8ZM39.4,58.2,36.7,57c.4-.9.9-1.8,1.3-2.7l2.6,1.4C40.2,56.5,39.8,57.4,39.4,58.2Zm65.4-2.6c-.4-.8-.9-1.6-1.4-2.4l2.5-1.6c.5.8,1.1,1.7,1.6,2.6ZM42.1,53.3l-2.5-1.6c.5-.8,1.1-1.7,1.7-2.5L43.7,51C43.1,51.8,42.6,52.5,42.1,53.3Zm59.6-2.4c-.6-.7-1.2-1.5-1.8-2.2l2.2-2A21.1,21.1,0,0,1,104,49Zm-56.3-2-2.2-2c.7-.7,1.4-1.5,2.1-2.2l2.1,2.2C46.7,47.5,46.1,48.2,45.4,48.9ZM98,46.7c-.7-.6-1.4-1.3-2.1-1.9l1.9-2.3c.8.6,1.5,1.3,2.3,2ZM49.5,45l-1.9-2.3c.8-.6,1.6-1.3,2.4-1.8l1.7,2.5A11.22,11.22,0,0,0,49.5,45Zm44.2-1.8c-.8-.5-1.6-1-2.3-1.5l1.5-2.6c.9.5,1.7,1.1,2.5,1.6ZM54,41.8l-1.5-2.6,2.7-1.5,1.3,2.7A20.13,20.13,0,0,0,54,41.8Zm34.9-1.5a20.29,20.29,0,0,0-2.6-1.1l1.1-2.8c.9.4,1.9.8,2.8,1.2ZM59,39.3l-1.1-2.8c.9-.4,1.9-.7,2.8-1l.9,2.9A16.14,16.14,0,0,0,59,39.3Zm24.7-1a26.81,26.81,0,0,0-2.7-.7l.7-2.9a24.54,24.54,0,0,1,2.9.8Zm-19.4-.7-.7-2.9,3-.6.5,3A27.41,27.41,0,0,0,64.3,37.6ZM78.2,37l-2.8-.3.2-3,3,.3Zm-8.3-.3-.2-3c1-.1,2-.1,3-.1v3A25.28,25.28,0,0,0,69.9,36.7Z"/><path class="new_sp_3-cls-2" d="M75.2,89.4H70.3a8.88,8.88,0,0,1-8.9-8.9h3a5.81,5.81,0,0,0,5.9,5.9h4.9a6.07,6.07,0,0,0,4.2-1.7,5.89,5.89,0,0,0,1.7-4.2,6.07,6.07,0,0,0-1.7-4.2,5.89,5.89,0,0,0-4.2-1.7H70.3a8.9,8.9,0,1,1,0-17.8h4.9a8.94,8.94,0,0,1,6.3,2.6,8.77,8.77,0,0,1,2.6,6.3h-3a5.81,5.81,0,0,0-5.9-5.9H70.3a6.07,6.07,0,0,0-4.2,1.7,5.89,5.89,0,0,0-1.7,4.2,6.07,6.07,0,0,0,1.7,4.2,5.89,5.89,0,0,0,4.2,1.7h4.9a8.91,8.91,0,0,1,6.3,15.2A8.94,8.94,0,0,1,75.2,89.4Z"/><rect class="new_sp_3-cls-2" x="71.2" y="52.4" width="3" height="41.4"/><path class="new_sp_3-cls-2" d="M93.3,19a9.5,9.5,0,0,1,0-19,9.5,9.5,0,0,1,0,19Zm0-16a6.5,6.5,0,1,0,6.5,6.5A6.49,6.49,0,0,0,93.3,3Z"/><path class="new_sp_3-cls-2" d="M119.9,121a5.8,5.8,0,1,1,5.8-5.8A5.8,5.8,0,0,1,119.9,121Zm0-8.6a2.8,2.8,0,1,0,2.8,2.8A2.86,2.86,0,0,0,119.9,112.4Z"/><path class="new_sp_3-cls-1" d="M66.6,26.8A4.8,4.8,0,1,1,61.8,22,4.8,4.8,0,0,1,66.6,26.8Z"/><path class="new_sp_3-cls-1" d="M15.6,93.8a2.9,2.9,0,1,1-2.9-2.9A2.9,2.9,0,0,1,15.6,93.8Z"/><path class="new_sp_3-cls-1" d="M42,20.9a14,14,0,1,1-14-14A14,14,0,0,1,42,20.9Z"/><path class="new_sp_3-cls-2" d="M12.7,126.8a12.7,12.7,0,1,1,12.7-12.7A12.72,12.72,0,0,1,12.7,126.8Zm0-22.5a9.7,9.7,0,1,0,9.7,9.7A9.71,9.71,0,0,0,12.7,104.3Z"/><path class="new_sp_3-cls-1" d="M42.1,121.2a4.5,4.5,0,1,1-4.5-4.5A4.55,4.55,0,0,1,42.1,121.2Z"/><path class="new_sp_3-cls-1" d="M141.6,38a18.2,18.2,0,1,1-18.2-18.2A18.14,18.14,0,0,1,141.6,38Z"/></svg>