<svg id="new_phone" data-name="Layer 1" xmlns="http://www.w3.org/2000/svg" viewBox="0 0 41.51 41.3"><defs><style>.new_phone-cls-1{fill:#33c1fb;}</style></defs><title>hero_icon_01</title><path class="new_phone-cls-1" d="M27.1,28a1.33,1.33,0,0,0-1,.4c-.8.7-1.5,1.4-2.2,2.1a.59.59,0,0,1-.5.2h-.2a8.76,8.76,0,0,1-2.9-.9,17,17,0,0,1-5.1-4A20.55,20.55,0,0,1,11,18.6v-.3c-.1-.2-.1-.4-.2-.5l.5-.5.1-.1a15,15,0,0,1,1.3-1.1,8.74,8.74,0,0,1,1-.8,1.69,1.69,0,0,0,.2-2c-.6-1.3-1.9-3.7-3-5.5C8.4,3.7,8.4,3.7,7.6,3.7a1.08,1.08,0,0,0-.7.3,41.11,41.11,0,0,0-5.7,6.3,5.6,5.6,0,0,0-.9,5.3v.1A26.57,26.57,0,0,0,4,23.8,47.93,47.93,0,0,0,17.9,37.9a21.38,21.38,0,0,0,7.7,3.3,4.48,4.48,0,0,0,1.2.1A8.46,8.46,0,0,0,31,40.2a.1.1,0,0,0,.1-.1c1.4-1,2.6-1.9,3.7-2.7.7-.6,1.4-1.2,2-1.8a1.24,1.24,0,0,0,.3-1.4C36.7,32.9,28.8,28,27.1,28Zm6.3,7.5q-1.65,1.2-3.6,2.7a6.3,6.3,0,0,1-2.9.7c-.4,0-.7,0-.8-.1a18.45,18.45,0,0,1-6.8-3A45.56,45.56,0,0,1,6,22.5,27.7,27.7,0,0,1,2.6,15v-.1a3.31,3.31,0,0,1,.5-3.2,39.39,39.39,0,0,1,4.3-5A71.23,71.23,0,0,1,11.5,14c-.1.1-.3.2-.4.4-.4.4-.9.8-1.3,1.2l-.1.1c-1.4,1.3-1.5,1.8-1,3.5l.1.2a23.15,23.15,0,0,0,4.7,8.1,17.59,17.59,0,0,0,5.8,4.6A11.08,11.08,0,0,0,23,33.2h.4a2.94,2.94,0,0,0,2.2-.9c.5-.6,1.1-1.1,1.7-1.7a42.82,42.82,0,0,1,7,4.3C34.1,35,33.8,35.3,33.4,35.5ZM32.3,21.1a1.2,1.2,0,1,0,2.4,0A14.19,14.19,0,0,0,20.5,6.9a1.16,1.16,0,0,0-1.2,1.2,1.16,1.16,0,0,0,1.2,1.2A11.76,11.76,0,0,1,32.3,21.1Zm3-14.9A21,21,0,0,0,20.4,0h0a1.16,1.16,0,0,0-1.2,1.2,1.16,1.16,0,0,0,1.2,1.2h0A18.21,18.21,0,0,1,33.6,7.9a18.62,18.62,0,0,1,5.5,13.2,1.2,1.2,0,0,0,2.4,0A20.62,20.62,0,0,0,35.3,6.2Z" transform="translate(0.01)"/></svg>