<svg id="new_cr" xmlns="http://www.w3.org/2000/svg" viewBox="0 0 60 60"><defs><style>.new_cr-cls-1{fill:#fff;}</style></defs><title>caseresults_icon_01</title><path class="new_cr-cls-1" d="M20.4,46.1l.2-.3V43.1H0v2.7l.2.3A12.84,12.84,0,0,0,10.3,51,12.7,12.7,0,0,0,20.4,46.1Zm-18.5-1V45H18.8v.1a11.08,11.08,0,0,1-8.4,4A11,11,0,0,1,1.9,45.1Z"/><polygon class="new_cr-cls-1" points="10.3 13.1 10.3 14.2 18.8 39.5 18.8 41.2 20.6 41.2 20.6 39.2 12.2 13.9 12.2 13.1 10.3 13.1"/><path class="new_cr-cls-1" d="M39.4,45.8l.2.3a12.86,12.86,0,0,0,20.2,0l.2-.3V43.1H39.4Zm1.8-.8H58.1v.1a11.08,11.08,0,0,1-8.4,4,10.76,10.76,0,0,1-8.4-4V45Z"/><path class="new_cr-cls-1" d="M51.3,9.4H32.8V8.1a3.84,3.84,0,0,0,.9-2.5V3.8A3.65,3.65,0,0,0,30,0a3.8,3.8,0,0,0-3.8,3.8V5.7a4.47,4.47,0,0,0,.9,2.5V9.5H8.7L0,39.1v2.1H1.9V39.5l8.2-28.3h19v-2a2.77,2.77,0,0,0,.9.1V7.5a1.9,1.9,0,0,1-1.9-1.9V3.8A1.9,1.9,0,0,1,30,1.9a1.84,1.84,0,0,1,1.9,1.9V5.7a2,2,0,0,1-.6,1.4l-.3.3v4H50l8.2,28.3v1.7H60V39.5Z"/><polygon class="new_cr-cls-1" points="46.9 13.9 39.4 39.1 39.4 41.2 41.2 41.2 41.2 39.5 48.7 14.3 48.8 13.1 46.9 13.1 46.9 13.9"/><path class="new_cr-cls-1" d="M39.4,54.4H35.6V15H45V13.1H33.8V54.3H31V30H29.1V54.4H26.3V13.1H14.1V15H24.4V54.4H20.6v3.8H16.8V60H43.1V58.1H39.3ZM22.5,56.2h15v1.9h-15Z"/><rect class="new_cr-cls-1" x="45" y="58.1" width="1.9" height="1.9"/><rect class="new_cr-cls-1" x="48.8" y="58.1" width="1.9" height="1.9"/><rect class="new_cr-cls-1" x="52.5" y="58.1" width="1.9" height="1.9"/><rect class="new_cr-cls-1" x="5.6" y="58.1" width="1.9" height="1.9"/><rect class="new_cr-cls-1" x="9.4" y="58.1" width="1.9" height="1.9"/><rect class="new_cr-cls-1" x="13.1" y="58.1" width="1.9" height="1.9"/><rect class="new_cr-cls-1" x="48.8" y="39.4" width="1.9" height="1.9"/><rect class="new_cr-cls-1" x="48.8" y="35.6" width="1.9" height="1.9"/><rect class="new_cr-cls-1" x="48.8" y="31.9" width="1.9" height="1.9"/><rect class="new_cr-cls-1" x="9.4" y="39.4" width="1.9" height="1.9"/><rect class="new_cr-cls-1" x="9.4" y="35.6" width="1.9" height="1.9"/><rect class="new_cr-cls-1" x="9.4" y="31.9" width="1.9" height="1.9"/></svg>