<?xml version="1.0" encoding="utf-8"?>
<!-- Generator: Adobe Illustrator 22.1.0, SVG Export Plug-In . SVG Version: 6.00 Build 0)  -->
<svg version="1.1" id="Layer_2" xmlns="http://www.w3.org/2000/svg" xmlns:xlink="http://www.w3.org/1999/xlink" x="0px" y="0px"
	 viewBox="0 0 141.6 126.8" style="enable-background:new 0 0 141.6 126.8;" xml:space="preserve">
<style type="text/css">
	.st0{fill:#46C7FC;}
	.st1{fill:#2E3133;}
	.st2{fill:#C1CED4;}
	.st3{fill:#33C1FC;}
	.st4{fill:#FFFFFF;}
</style>
<g>
	<path class="st0" d="M72.7,25c-26.6,0-48.1,21.5-48.1,48.1c0,26.6,21.5,48.1,48.1,48.1c26.6,0,48.1-21.5,48.1-48.1
		C120.8,46.5,99.3,25,72.7,25z M72.7,101c-15.4,0-27.9-12.5-27.9-27.9c0-15.4,12.5-27.9,27.9-27.9c15.4,0,27.9,12.5,27.9,27.9
		C100.6,88.5,88.1,101,72.7,101z"/>
	<g>
		<path class="st1" d="M72.7,112.6c-1,0-2,0-3-0.1l0.2-3c0.9,0.1,1.9,0.1,2.8,0.1l0.2,0v3L72.7,112.6
			C72.7,112.6,72.7,112.6,72.7,112.6z M75.9,112.5l-0.2-3c0.9-0.1,1.9-0.2,2.8-0.3l0.5,3C77.9,112.3,76.9,112.4,75.9,112.5z
			 M66.7,112.2c-1-0.2-2-0.3-3-0.6l0.7-2.9c0.9,0.2,1.8,0.4,2.7,0.5L66.7,112.2z M81.9,111.6l-0.7-2.9c0.9-0.2,1.8-0.5,2.7-0.8
			l0.9,2.9C83.9,111,82.9,111.3,81.9,111.6z M60.8,110.8c-1-0.3-1.9-0.6-2.9-1l1.1-2.8c0.9,0.3,1.7,0.7,2.6,0.9L60.8,110.8z
			 M87.6,109.7l-1.1-2.8c0.9-0.4,1.7-0.7,2.5-1.2l1.3,2.7C89.5,108.9,88.6,109.3,87.6,109.7z M55.2,108.5c-0.9-0.4-1.8-0.9-2.7-1.4
			l1.5-2.6c0.8,0.5,1.6,0.9,2.5,1.3L55.2,108.5z M93.1,107l-1.5-2.6c0.8-0.5,1.6-1,2.3-1.5l1.7,2.4C94.8,105.9,93.9,106.5,93.1,107z
			 M50,105.4c-0.8-0.6-1.6-1.2-2.4-1.8l1.9-2.3c0.7,0.6,1.5,1.2,2.2,1.7L50,105.4z M98,103.5l-1.9-2.3c0.7-0.6,1.4-1.2,2.1-1.9
			l2.1,2.2C99.5,102.2,98.7,102.9,98,103.5z M45.3,101.6c-0.7-0.7-1.4-1.4-2.1-2.2l2.2-2c0.6,0.7,1.3,1.4,1.9,2L45.3,101.6z
			 M102.3,99.3l-2.2-2c0.6-0.7,1.2-1.4,1.8-2.2l2.4,1.8C103.6,97.8,103,98.5,102.3,99.3z M41.3,97.1c-0.6-0.8-1.2-1.6-1.7-2.5
			l2.5-1.6c0.5,0.8,1,1.5,1.6,2.3L41.3,97.1z M106,94.5l-2.5-1.6c0.5-0.8,1-1.6,1.4-2.4l2.6,1.4C107,92.8,106.5,93.6,106,94.5z
			 M38,92c-0.5-0.9-0.9-1.8-1.3-2.7l2.7-1.2c0.4,0.8,0.8,1.7,1.2,2.5L38,92z M108.8,89.2l-2.7-1.2c0.4-0.8,0.7-1.7,1-2.6l2.8,1
			C109.6,87.3,109.3,88.2,108.8,89.2z M35.5,86.5c-0.3-0.9-0.6-1.9-0.9-2.9l2.9-0.8c0.2,0.9,0.5,1.8,0.8,2.7L35.5,86.5z M110.9,83.5
			l-2.9-0.8c0.2-0.9,0.5-1.8,0.6-2.7l2.9,0.6C111.4,81.5,111.1,82.5,110.9,83.5z M33.9,80.7c-0.2-1-0.3-2-0.5-3l3-0.3
			c0.1,0.9,0.2,1.8,0.4,2.8L33.9,80.7z M112,77.5l-3-0.3c0.1-0.9,0.2-1.9,0.2-2.8l3,0.1C112.2,75.5,112.1,76.5,112,77.5z M33.3,74.7
			c0-0.5,0-1,0-1.6c0-0.5,0-1,0-1.5l3,0.1c0,0.5,0,0.9,0,1.4c0,0.5,0,1,0,1.4L33.3,74.7z M109.2,71.6c0-0.9-0.1-1.9-0.2-2.8l3-0.3
			c0.1,1,0.2,2,0.2,3L109.2,71.6z M36.5,69l-3-0.3c0.1-1,0.3-2,0.5-3l2.9,0.6C36.7,67.1,36.6,68,36.5,69z M108.6,66
			c-0.2-0.9-0.4-1.8-0.6-2.7l2.9-0.8c0.3,1,0.5,2,0.7,2.9L108.6,66z M37.5,63.5l-2.9-0.8c0.3-1,0.6-1.9,0.9-2.9l2.8,1
			C38,61.7,37.8,62.6,37.5,63.5z M107.1,60.7c-0.3-0.9-0.7-1.7-1.1-2.6l2.7-1.2c0.4,0.9,0.8,1.9,1.1,2.8L107.1,60.7z M39.4,58.2
			L36.7,57c0.4-0.9,0.9-1.8,1.3-2.7l2.6,1.4C40.2,56.5,39.8,57.4,39.4,58.2z M104.8,55.6c-0.4-0.8-0.9-1.6-1.4-2.4l2.5-1.6
			c0.5,0.8,1.1,1.7,1.6,2.6L104.8,55.6z M42.1,53.3l-2.5-1.6c0.5-0.8,1.1-1.7,1.7-2.5l2.4,1.8C43.1,51.8,42.6,52.5,42.1,53.3z
			 M101.7,50.9c-0.6-0.7-1.2-1.5-1.8-2.2l2.2-2c0.7,0.7,1.3,1.5,1.9,2.3L101.7,50.9z M45.4,48.9l-2.2-2c0.7-0.7,1.4-1.5,2.1-2.2
			l2.1,2.2C46.7,47.5,46.1,48.2,45.4,48.9z M98,46.7c-0.7-0.6-1.4-1.3-2.1-1.9l1.9-2.3c0.8,0.6,1.5,1.3,2.3,2L98,46.7z M49.5,45
			l-1.9-2.3c0.8-0.6,1.6-1.3,2.4-1.8l1.7,2.5C50.9,43.8,50.2,44.4,49.5,45z M93.7,43.2c-0.8-0.5-1.6-1-2.3-1.5l1.5-2.6
			c0.9,0.5,1.7,1.1,2.5,1.6L93.7,43.2z M54,41.8l-1.5-2.6c0.9-0.5,1.8-1,2.7-1.5l1.3,2.7C55.6,40.8,54.8,41.3,54,41.8z M88.9,40.3
			c-0.8-0.4-1.7-0.8-2.6-1.1l1.1-2.8c0.9,0.4,1.9,0.8,2.8,1.2L88.9,40.3z M59,39.3l-1.1-2.8c0.9-0.4,1.9-0.7,2.8-1l0.9,2.9
			C60.8,38.6,59.9,38.9,59,39.3z M83.7,38.3c-0.9-0.3-1.8-0.5-2.7-0.7l0.7-2.9c1,0.2,2,0.5,2.9,0.8L83.7,38.3z M64.3,37.6l-0.7-2.9
			c1-0.2,2-0.4,3-0.6l0.5,3C66.2,37.2,65.2,37.4,64.3,37.6z M78.2,37c-0.9-0.1-1.8-0.2-2.8-0.3l0.2-3c1,0.1,2,0.2,3,0.3L78.2,37z
			 M69.9,36.7l-0.2-3c1-0.1,2-0.1,3-0.1l0,3C71.7,36.6,70.8,36.6,69.9,36.7z"/>
	</g>
	<g>
		<path class="st1" d="M75.2,89.4h-4.9c-2.4,0-4.6-0.9-6.3-2.6c-1.7-1.7-2.6-3.9-2.6-6.3l3,0c0,1.6,0.6,3.1,1.7,4.2
			c1.1,1.1,2.6,1.7,4.2,1.7h4.9c1.6,0,3-0.6,4.2-1.7c1.1-1.1,1.7-2.6,1.7-4.2c0-1.6-0.6-3-1.7-4.2c-1.1-1.1-2.6-1.7-4.2-1.7h-4.9
			c-2.4,0-4.6-0.9-6.3-2.6c-1.7-1.7-2.6-3.9-2.6-6.3c0-2.4,0.9-4.6,2.6-6.3c1.7-1.7,3.9-2.6,6.3-2.6h4.9c2.3,0,4.6,0.9,6.3,2.6
			c1.7,1.7,2.6,3.9,2.6,6.3h-3c0-1.6-0.6-3.1-1.7-4.2c-1.1-1.1-2.6-1.7-4.2-1.7h-4.9c-1.6,0-3,0.6-4.2,1.7c-1.1,1.1-1.7,2.6-1.7,4.2
			c0,1.6,0.6,3,1.7,4.2c1.1,1.1,2.6,1.7,4.2,1.7h4.9c2.4,0,4.6,0.9,6.3,2.6c1.7,1.7,2.6,3.9,2.6,6.3c0,2.4-0.9,4.6-2.6,6.3
			C79.8,88.5,77.5,89.4,75.2,89.4z"/>
		<rect x="71.2" y="52.4" class="st1" width="3" height="41.4"/>
	</g>
	<path class="st1" d="M93.3,19c-5.2,0-9.5-4.3-9.5-9.5C83.8,4.3,88,0,93.3,0c5.2,0,9.5,4.3,9.5,9.5C102.8,14.8,98.5,19,93.3,19z
		 M93.3,3c-3.6,0-6.5,2.9-6.5,6.5c0,3.6,2.9,6.5,6.5,6.5c3.6,0,6.5-2.9,6.5-6.5C99.8,5.9,96.9,3,93.3,3z"/>
	<path class="st1" d="M119.9,121c-3.2,0-5.8-2.6-5.8-5.8c0-3.2,2.6-5.8,5.8-5.8c3.2,0,5.8,2.6,5.8,5.8
		C125.7,118.4,123.1,121,119.9,121z M119.9,112.4c-1.5,0-2.8,1.3-2.8,2.8s1.3,2.8,2.8,2.8s2.8-1.3,2.8-2.8S121.4,112.4,119.9,112.4z
		"/>
	<path class="st0" d="M66.6,26.8c0,2.7-2.2,4.8-4.8,4.8c-2.7,0-4.8-2.2-4.8-4.8c0-2.7,2.2-4.8,4.8-4.8C64.5,22,66.6,24.2,66.6,26.8z
		"/>
	<path class="st0" d="M15.6,93.8c0,1.6-1.3,2.9-2.9,2.9c-1.6,0-2.9-1.3-2.9-2.9c0-1.6,1.3-2.9,2.9-2.9
		C14.3,90.9,15.6,92.2,15.6,93.8z"/>
	<path class="st0" d="M42,20.9c0,7.7-6.2,14-14,14s-14-6.2-14-14c0-7.7,6.2-14,14-14S42,13.2,42,20.9z"/>
	<path class="st1" d="M12.7,126.8c-7,0-12.7-5.7-12.7-12.7c0-7,5.7-12.7,12.7-12.7c7,0,12.7,5.7,12.7,12.7
		C25.5,121.1,19.7,126.8,12.7,126.8z M12.7,104.3c-5.4,0-9.7,4.4-9.7,9.7c0,5.4,4.4,9.7,9.7,9.7c5.4,0,9.7-4.4,9.7-9.7
		C22.5,108.7,18.1,104.3,12.7,104.3z"/>
	<path class="st0" d="M42.1,121.2c0,2.5-2,4.5-4.5,4.5c-2.5,0-4.5-2-4.5-4.5c0-2.5,2-4.5,4.5-4.5C40,116.7,42.1,118.7,42.1,121.2z"
		/>
	<path class="st0" d="M141.6,38c0,10.1-8.1,18.2-18.2,18.2c-10.1,0-18.2-8.2-18.2-18.2s8.2-18.2,18.2-18.2
		C133.4,19.8,141.6,27.9,141.6,38z"/>
</g>
</svg>
