<?xml version="1.0" encoding="utf-8"?>
<!-- Generator: Adobe Illustrator 22.1.0, SVG Export Plug-In . SVG Version: 6.00 Build 0)  -->
<svg version="1.1" id="Layer_2" xmlns="http://www.w3.org/2000/svg" xmlns:xlink="http://www.w3.org/1999/xlink" x="0px" y="0px"
	 viewBox="0 0 131.2 122.7" style="enable-background:new 0 0 131.2 122.7;" xml:space="preserve">
<style type="text/css">
	.st0{fill:#46C7FC;}
	.st1{fill:#2E3133;}
	.st2{fill:#C1CED4;}
	.st3{fill:#33C1FC;}
	.st4{fill:#FFFFFF;}
</style>
<g>
	<g>
		<path class="st2" d="M93.4,10.9H37.5c-4,0-7.2,3.2-7.2,7.2v97.5c0,4,3.2,7.2,7.2,7.2h55.9c4,0,7.2-3.2,7.2-7.2V18.1
			C100.6,14.1,97.4,10.9,93.4,10.9z M92.6,104.8H38.3V28.9h54.3V104.8z"/>
		<path class="st1" d="M94.1,106.3H36.8V27.4h57.3V106.3z M39.8,103.3h51.3V30.4H39.8V103.3z"/>
		<rect x="55.5" y="112.8" class="st1" width="20" height="3"/>
	</g>
	<polygon class="st3" points="83.1,0 83.1,51.1 27.5,51.1 12.1,66.5 12.1,51.1 2.7,51.1 2.7,0 	"/>
	<g>
		<rect x="57" y="62" class="st3" width="74.2" height="36.5"/>
		<g>
			<g>
				<rect x="73.1" y="73.7" class="st4" width="4.9" height="4.9"/>
				<rect x="80.5" y="73.7" class="st4" width="4.9" height="4.9"/>
				<rect x="88" y="73.7" class="st4" width="4.9" height="4.9"/>
				<rect x="95.4" y="73.7" class="st4" width="4.9" height="4.9"/>
				<rect x="102.8" y="73.7" class="st4" width="4.9" height="4.9"/>
				<rect x="110.2" y="73.7" class="st4" width="4.9" height="4.9"/>
				<rect x="117.7" y="73.7" class="st4" width="4.9" height="4.9"/>
			</g>
			<g>
				<rect x="69.4" y="81.1" class="st4" width="4.9" height="4.9"/>
				<rect x="76.8" y="81.1" class="st4" width="4.9" height="4.9"/>
				<rect x="84.3" y="81.1" class="st4" width="4.9" height="4.9"/>
				<rect x="91.7" y="81.1" class="st4" width="4.9" height="4.9"/>
				<rect x="99.1" y="81.1" class="st4" width="4.9" height="4.9"/>
				<rect x="106.5" y="81.1" class="st4" width="4.9" height="4.9"/>
				<rect x="113.9" y="81.1" class="st4" width="4.9" height="4.9"/>
				<rect x="121.4" y="81.1" class="st4" width="4.9" height="4.9"/>
			</g>
			<g>
				<rect x="73.1" y="88.6" class="st4" width="4.9" height="4.9"/>
				<rect x="80.5" y="88.6" class="st4" width="34.6" height="4.9"/>
				<rect x="117.7" y="88.6" class="st4" width="4.9" height="4.9"/>
			</g>
		</g>
	</g>
	<g>
		<rect x="9.9" y="12.7" class="st4" width="40.9" height="3"/>
		<rect x="9.9" y="17.8" class="st4" width="40.9" height="3"/>
		<rect x="9.9" y="22.9" class="st4" width="11.2" height="3"/>
	</g>
	<g>
		<rect y="95.3" class="st1" width="11.1" height="3"/>
		<rect y="90.2" class="st1" width="26.1" height="3"/>
		<rect y="85.1" class="st1" width="19.5" height="3"/>
	</g>
</g>
</svg>
