<?xml version="1.0" encoding="utf-8"?>
<!-- Generator: Adobe Illustrator 22.1.0, SVG Export Plug-In . SVG Version: 6.00 Build 0)  -->
<svg version="1.1" id="Layer_2" xmlns="http://www.w3.org/2000/svg" xmlns:xlink="http://www.w3.org/1999/xlink" x="0px" y="0px"
	 viewBox="0 0 155.7 121" style="enable-background:new 0 0 155.7 121;" xml:space="preserve">
<style type="text/css">
	.st0{fill:#46C7FC;}
	.st1{fill:#2E3133;}
	.st2{fill:#C1CED4;}
	.st3{fill:#33C1FC;}
	.st4{fill:#FFFFFF;}
</style>
<g>
	<g>
		<path class="st2" d="M91.3,5.3c-4.5,0-8.2,3.7-8.2,8.2v58.1c0,2.1-0.8,4.2-2.4,5.8c-1.6,1.6-3.7,2.4-5.8,2.4h52.6
			c4.5,0,8.2-3.7,8.2-8.2V13.5c0-4.5,3.7-8.2,8.2-8.2H91.3z"/>
		<path class="st2" d="M43.8,41.5c-4.5,0-8.2,3.7-8.2,8.2v58.1c0,4.5-3.7,8.2-8.2,8.2H80c4.5,0,8.2-3.7,8.2-8.2V49.7
			c0-4.5,3.7-8.2,8.2-8.2H43.8z"/>
		<g>
			<path class="st1" d="M120.4,77.4H95.9v-3h24.5c3.7,0,6.7-3,6.7-6.7V9.7c0-2.6,1-4.9,2.7-6.7H84.1c-3.7,0-6.7,3-6.7,6.7v35.4h-3
				V9.7c0-5.3,4.3-9.7,9.7-9.7h52.6v3c-3.7,0-6.7,3-6.7,6.7v58.1C130.1,73.1,125.7,77.4,120.4,77.4z"/>
			<path class="st1" d="M120.4,77.4c-5.3,0-9.7-4.3-9.7-9.7V53.2c0-3.7-3-6.7-6.7-6.7v-3c5.3,0,9.7,4.3,9.7,9.7v14.5
				c0,3.7,3,6.7,6.7,6.7V77.4z"/>
			<path class="st1" d="M87.7,121v-3c3.7,0,6.7-3,6.7-6.7V53.2c0-2.6,1-4.9,2.7-6.7H51.4c-3.7,0-6.7,3-6.7,6.7v58.1h-3V53.2
				c0-5.3,4.3-9.7,9.7-9.7H104v3c-3.7,0-6.7,3-6.7,6.7v58.1C97.4,116.7,93,121,87.7,121z"/>
			<path class="st1" d="M87.7,121H35.1c-5.3,0-9.7-4.3-9.7-9.7v-1.5H81v1.5c0,3.7,3,6.7,6.7,6.7L87.7,121z M28.6,112.8
				c0.7,3,3.3,5.2,6.5,5.2h45.6c-1.3-1.4-2.3-3.2-2.6-5.2H28.6z"/>
			<path class="st1" d="M146.4,11.2h-17.8v-3h14.7c-0.7-3-3.3-5.2-6.5-5.2V0c5.3,0,9.7,4.3,9.7,9.7V11.2z"/>
		</g>
	</g>
	<g>
		<rect y="65.8" class="st3" width="53.5" height="37.2"/>
	</g>
	<g>
		<rect x="109.6" y="89.1" class="st3" width="42" height="27.5"/>
		<polygon class="st4" points="144,96.6 142.4,97.2 140.8,100.1 139.2,100.3 137.6,101.8 136,101.1 134.1,99.8 132.8,101.6 
			131.1,102.6 129.5,101.4 127.9,102.4 126.3,102.9 124.7,105.7 123.1,106.6 121.5,105.2 119.9,104.6 118.3,107.2 116.7,106.6 
			115.1,107.9 113.4,108.1 113.4,111.8 147.3,111.8 147.3,93.8 145.6,94.1 		"/>
		<path class="st1" d="M149.9,113.3h-45V82.8h45V113.3z M107.8,110.3h39V85.8h-39V110.3z"/>
	</g>
	<rect x="102.9" y="15" class="st3" width="47.8" height="23.8"/>
	<g>
		<rect x="30.2" y="6" class="st1" width="29.9" height="3"/>
		<rect x="36.1" y="12.5" class="st1" width="32.6" height="3"/>
		<rect x="36.1" y="19" class="st1" width="32.6" height="3"/>
		<rect x="36.1" y="25.6" class="st1" width="32.6" height="3"/>
		<rect x="36.1" y="32.1" class="st1" width="12.7" height="3"/>
	</g>
	<g>
		<rect x="65.6" y="65.6" class="st4" width="18.1" height="3"/>
		<rect x="65.6" y="72.1" class="st4" width="18.1" height="3"/>
		<rect x="65.6" y="78.7" class="st4" width="18.1" height="3"/>
		<rect x="65.6" y="85.2" class="st4" width="7" height="3"/>
	</g>
	<g>
		<rect x="90.7" y="20.1" class="st4" width="17.3" height="3"/>
		<rect x="90.7" y="26.6" class="st4" width="32.6" height="3"/>
	</g>
	<g>
		<rect x="139.2" y="30.7" class="st1" width="16.5" height="3"/>
		<rect x="139.2" y="37.2" class="st1" width="16.5" height="3"/>
		<rect x="139.2" y="43.7" class="st1" width="9.3" height="3"/>
	</g>
	<polygon class="st4" points="22.1,95.4 12.2,87.5 14.7,84.3 21.4,89.7 33.3,74 36.5,76.4 	"/>
</g>
</svg>
